<?xml version="1.0" encoding="UTF-8"?>
<svg version="1.1" xmlns="http://www.w3.org/2000/svg" width="1024" height="1024">
<path d="M0 0 C0.81209462 0.00234117 1.62418925 0.00468233 2.4608928 0.00709444 C3.31944088 0.005641 4.17798896 0.00418756 5.06255364 0.00269008 C7.9771143 -0.00099726 10.89162355 0.00252906 13.80618393 0.00595194 C15.90173316 0.0048012 17.99728218 0.003214 20.09283078 0.0012247 C25.88064573 -0.00297509 31.66844433 -0.00087502 37.45625937 0.00221092 C43.68672245 0.00446217 49.91718261 0.00098678 56.14764512 -0.00176901 C67.65753647 -0.00597051 79.16742048 -0.00558973 90.67731181 -0.00285754 C101.30867917 -0.00034615 111.94004461 0.00031667 122.57141221 -0.00088018 C123.27546251 -0.00095657 123.97951281 -0.00103295 124.70489796 -0.00111165 C127.56256464 -0.00142297 130.42023132 -0.00174137 133.27789799 -0.00207142 C160.10807854 -0.00513332 186.93825573 -0.00235236 213.76843576 0.00302548 C237.62745583 0.00777141 261.48647056 0.00734679 285.34549057 0.00256449 C312.12527943 -0.00278525 338.90506532 -0.0049162 365.68485463 -0.00182325 C368.53744169 -0.00150251 371.39002875 -0.00118967 374.24261582 -0.00088018 C375.2962556 -0.00076157 375.2962556 -0.00076157 376.37118103 -0.00064055 C386.9982283 0.00049894 397.62527344 -0.00083711 408.25232041 -0.00335974 C420.33064284 -0.00621249 432.40895759 -0.00542134 444.48727977 -0.00007899 C450.65637599 0.00255921 456.82546135 0.00356109 462.9945575 0.00027186 C468.63219931 -0.00268868 474.2698201 -0.00110239 479.90745997 0.00424941 C481.95655929 0.00537464 484.00566034 0.0047801 486.05475855 0.00237362 C488.82091006 -0.00062797 491.58698771 0.00241162 494.35313523 0.00709444 C495.57127716 0.00358269 495.57127716 0.00358269 496.81402802 0 C502.29286367 0.01878525 502.29286367 0.01878525 503.40701401 1.13293558 C504.95516806 1.27774845 506.50929755 1.35996404 508.06326401 1.41418558 C509.00299057 1.4515684 509.94271714 1.48895121 510.91092026 1.52746683 C511.8996312 1.56227152 512.88834214 1.59707621 513.90701401 1.63293558 C515.85508831 1.70151186 517.8030236 1.77420345 519.75076401 1.85168558 C520.61894761 1.88197855 521.4871312 1.91227152 522.38162339 1.94348246 C524.40701401 2.13293558 524.40701401 2.13293558 525.40701401 3.13293558 C526.77850655 3.2918639 528.15482892 3.40989868 529.53201401 3.50793558 C533.95321803 3.94166129 537.33953887 5.32516885 541.40701401 7.13293558 C543.73396365 7.50825004 546.06678086 7.85210761 548.40701401 8.13293558 C548.73701401 8.46293558 549.06701401 8.79293558 549.40701401 9.13293558 C551.01576401 9.31856058 551.01576401 9.31856058 552.65701401 9.50793558 C556.48681709 10.1462361 558.16880442 11.12832965 561.40701401 13.13293558 C562.73224984 13.57468086 564.06701127 13.98824387 565.40701401 14.38293558 C577.51715657 18.23158322 588.95620123 26.00738141 599.40701401 33.13293558 C600.26424057 33.64727152 601.12146714 34.16160746 602.00467026 34.69152933 C606.74591425 37.85333092 610.60175489 42.03881749 614.59451401 46.07043558 C615.40082261 46.8690098 616.2071312 47.66758402 617.03787339 48.49035746 C617.81324448 49.26830668 618.58861557 50.0462559 619.38748276 50.84777933 C620.0876854 51.55023783 620.78788804 52.25269633 621.50930893 52.97644144 C623.489036 55.22614287 624.91077029 57.54406702 626.40701401 60.13293558 C626.90974839 60.62535746 627.41248276 61.11777933 627.93045151 61.62512308 C629.88719248 63.62327656 630.82978865 65.73396537 632.03201401 68.25793558 C634.20933385 72.74321446 636.47348656 77.15684675 638.83987534 81.5452891 C642.46213432 88.26831452 645.8680358 94.91095312 648.40701401 102.13293558 C648.79888901 103.18481058 649.19076401 104.23668558 649.59451401 105.32043558 C650.53226785 108.56650655 650.94814733 111.78976403 651.40701401 115.13293558 C651.73701401 115.46293558 652.06701401 115.79293558 652.40701401 116.13293558 C652.72799152 118.45110647 652.91922357 120.77072915 653.12576401 123.10168558 C653.19767239 125.12474151 653.19767239 125.12474151 654.40701401 126.13293558 C654.74034735 128.46626892 655.07368068 130.79960225 655.40701401 133.13293558 C655.73701401 133.46293558 656.06701401 133.79293558 656.40701401 134.13293558 C656.67700302 137.34280489 656.85312838 140.54524418 657.01248276 143.76184183 C656.90406921 147.24237836 656.90406921 147.24237836 658.40701401 150.13293558 C658.50684969 152.78440287 658.54062331 155.4098747 658.53285515 158.0618754 C658.53430859 158.90691649 658.53576203 159.75195758 658.53725952 160.62260598 C658.54094676 163.49121968 658.53742058 166.35978114 658.53399765 169.22839457 C658.5351484 171.29094539 658.53673561 173.35349601 658.5387249 175.4160462 C658.54292464 181.11264865 658.54082464 186.80923449 658.53773868 192.50583702 C658.53548741 198.6381397 658.53896283 204.7704394 658.5417186 210.90274149 C658.54592008 222.23127084 658.54553933 233.55979337 658.54280713 244.88832256 C658.54029574 255.35217485 658.53963293 265.81602519 658.54082978 276.27987772 C658.54094436 277.31931701 658.54094436 277.31931701 658.54106125 278.37975507 C658.54137256 281.19240617 658.54169096 284.00505727 658.54202101 286.81770837 C658.54508291 313.22519021 658.54230197 339.63266865 658.53692411 366.04014997 C658.53217819 389.52322877 658.5326028 413.00630215 658.53738511 436.4893809 C658.54273486 462.84726806 658.54486579 489.20515221 658.54177284 515.56303984 C658.5414521 518.37069104 658.54113927 521.17834224 658.54082978 523.98599344 C658.5407507 524.67735476 658.54067162 525.36871608 658.54059015 526.08102774 C658.53945066 536.54062244 658.5407867 547.00021497 658.54330933 557.45980936 C658.5461621 569.3478228 658.5453709 581.23582983 658.54002859 593.12384301 C658.5373904 599.1957265 658.53638848 605.26759895 658.53967774 611.33948237 C658.54263831 616.888304 658.54105193 622.43710427 658.53570019 627.98592395 C658.53457497 630.00272199 658.53516946 632.0195218 658.53757598 634.03631872 C658.54057765 636.7589041 658.5375379 639.48141444 658.53285515 642.20399576 C658.53519632 643.00325562 658.53753749 643.80251548 658.5399496 644.62599534 C658.52116435 650.01878524 658.52116435 650.01878524 657.40701401 651.13293558 C657.19638295 653.63710494 657.03129324 656.12433639 656.90701401 658.63293558 C656.54214915 665.99780045 656.54214915 665.99780045 655.40701401 667.13293558 C655.24767911 668.83840917 655.12986732 670.54783251 655.03201401 672.25793558 C654.75061867 675.77083875 654.41033127 678.68656199 652.90701401 681.88293558 C651.3049921 685.35398305 650.8596791 688.36072651 650.40701401 692.13293558 C650.07701401 692.46293558 649.74701401 692.79293558 649.40701401 693.13293558 C649.28326401 694.20543558 649.15951401 695.27793558 649.03201401 696.38293558 C648.3937135 700.21273866 647.41161995 701.89472599 645.40701401 705.13293558 C644.89580175 706.51735366 644.41992359 707.91505926 643.96951401 709.32043558 C641.64669513 716.5536695 639.35766048 723.29497706 634.68826401 729.35949808 C632.8070611 731.96335821 631.37787513 734.77631637 629.91092026 737.62902933 C624.94080248 745.90395271 618.35571062 752.49614564 611.54788315 759.25280863 C609.83773037 760.95217644 608.1386115 762.66205903 606.44021714 764.37316996 C605.34515521 765.46691127 604.24947357 766.56003254 603.15310776 767.65246683 C602.65089203 768.15873102 602.1486763 768.66499521 601.63124192 769.18660074 C598.75948432 772.02070147 595.93755739 774.18977409 592.40701401 776.13293558 C591.52013901 776.73106058 590.63326401 777.32918558 589.71951401 777.94543558 C582.15412957 782.94144418 574.91917764 786.92137524 566.37185776 790.04309183 C564.14201578 790.86275707 561.94988083 791.78613322 559.78201401 792.75793558 C555.93080819 794.32694536 552.06033568 795.33439183 548.03982651 796.37512308 C545.18742019 797.1292911 545.18742019 797.1292911 541.78201401 798.75793558 C538.15506446 800.2355817 535.09965558 800.64634076 531.22732651 800.92199808 C529.38883993 800.94410574 529.38883993 800.94410574 528.40701401 802.13293558 C525.19714471 802.40292459 521.99470542 802.57904995 518.77810776 802.73840433 C515.29757124 802.62999078 515.29757124 802.62999078 512.40701401 804.13293558 C509.04592117 804.45820263 505.68367411 804.64653019 502.31326401 804.85168558 C499.51651269 804.81153448 499.51651269 804.81153448 498.40701401 806.13293558 C495.72441207 806.23278962 493.06750183 806.26654254 490.38436997 806.25877672 C489.52919864 806.26023017 488.6740273 806.26168361 487.79294169 806.26318109 C484.88986777 806.26686841 481.98684547 806.26334212 479.08377182 806.25991923 C476.9964722 806.26106997 474.90917278 806.26265717 472.82187378 806.26464647 C467.05686196 806.26884625 461.29186654 806.2667462 455.52685463 806.26366025 C449.32093166 806.26140899 443.11501161 806.26488439 436.90908921 806.26764017 C425.44453831 806.27184167 413.97999479 806.2714609 402.51544392 806.26872871 C391.92595533 806.26621731 381.33646866 806.2655545 370.74697983 806.26675135 C370.04570223 806.26682773 369.34442462 806.26690412 368.62189618 806.26698282 C365.77548339 806.26729414 362.92907061 806.26761253 360.08265783 806.26794258 C333.35815196 806.27100448 306.63364945 806.26822353 279.9091441 806.26284569 C256.14410936 806.25809976 232.37907996 806.25852438 208.61404526 806.26330668 C181.93973183 806.26865642 155.26542138 806.27078737 128.59110749 806.26769441 C125.74975439 806.26737368 122.90840129 806.26706084 120.06704819 806.26675135 C119.36738797 806.26667227 118.66772775 806.26659319 117.94686571 806.26651172 C107.36168158 806.26537223 96.7764996 806.26670828 86.19131577 806.2692309 C74.16057047 806.27208366 62.12983289 806.2712925 50.09908783 806.26595016 C43.9542948 806.26331196 37.80951267 806.26231007 31.6647197 806.26559931 C26.04928293 806.26855985 20.43386728 806.26697354 14.81843245 806.26162176 C12.77740846 806.26049653 10.73638271 806.26109106 8.69535983 806.26349755 C5.94009985 806.26649916 3.18491403 806.26345953 0.42965806 806.25877672 C-0.78367084 806.26228847 -0.78367084 806.26228847 -2.02151144 806.26587117 C-7.47883565 806.24708592 -7.47883565 806.24708592 -8.59298599 805.13293558 C-11.09715534 804.92230452 -13.5843868 804.75721481 -16.09298599 804.63293558 C-23.45785085 804.26807072 -23.45785085 804.26807072 -24.59298599 803.13293558 C-26.42204834 802.92456139 -28.25686733 802.76543899 -30.09298599 802.63293558 C-35.48187488 802.24404669 -35.48187488 802.24404669 -36.59298599 801.13293558 C-37.74798599 800.96793558 -38.90298599 800.80293558 -40.09298599 800.63293558 C-43.59298599 800.13293558 -43.59298599 800.13293558 -44.59298599 799.13293558 C-45.62423599 799.00918558 -46.65548599 798.88543558 -47.71798599 798.75793558 C-51.79596082 798.10019771 -54.83353514 796.81820665 -58.59298599 795.13293558 C-59.98481346 794.68032244 -61.38100251 794.2409785 -62.78048599 793.81262308 C-67.56347356 792.24038772 -71.82563902 790.07044681 -76.21798599 787.63293558 C-82.1754957 784.35494386 -82.1754957 784.35494386 -88.35861099 781.53918558 C-91.21862817 780.29569985 -93.30699476 779.06979883 -95.71798599 777.13293558 C-97.72814695 775.53147955 -99.6132187 774.12173238 -101.86544693 772.8746348 C-105.03936989 770.84789237 -107.58940749 768.42393236 -110.22579849 765.76574808 C-110.74431381 765.24914622 -111.26282913 764.73254435 -111.79705703 764.20028788 C-112.88692845 763.11177139 -113.97430263 762.02074941 -115.05929458 760.92736918 C-116.71288718 759.26306742 -118.3768778 757.60970508 -120.04220474 755.95715433 C-121.10404447 754.89399288 -122.16526357 753.83021113 -123.22579849 752.76574808 C-123.71960006 752.27599497 -124.21340164 751.78624186 -124.7221669 751.28164774 C-127.53051869 748.43515009 -129.66035963 745.62678346 -131.59298599 742.13293558 C-132.23236099 741.20223246 -132.87173599 740.27152933 -133.53048599 739.31262308 C-135.8477476 735.7401781 -137.72933216 732.07988192 -139.59298599 728.25793558 C-139.92298599 727.58891215 -140.25298599 726.91988871 -140.59298599 726.23059183 C-141.25919434 724.87995849 -141.92269359 723.52798545 -142.5834645 722.17468363 C-143.26848279 720.78924037 -143.96741213 719.4106055 -144.67867935 718.03845316 C-146.63197209 714.25570884 -148.16770073 710.73901364 -149.15548599 706.57043558 C-150.27619772 702.16067856 -151.72547287 698.27394293 -153.59298599 694.13293558 C-155.31605744 689.72953077 -155.96298929 685.66575252 -156.34689224 680.98840433 C-156.40339214 679.11986352 -156.40339214 679.11986352 -157.59298599 678.13293558 C-157.92631932 675.79960225 -158.25965265 673.46626892 -158.59298599 671.13293558 C-158.92298599 670.80293558 -159.25298599 670.47293558 -159.59298599 670.13293558 C-159.73779885 668.58478153 -159.82001444 667.03065204 -159.87423599 665.47668558 C-159.93031021 664.06709574 -159.93031021 664.06709574 -159.98751724 662.62902933 C-160.05782974 660.6316335 -160.12814224 658.63423767 -160.19845474 656.63684183 C-160.25452896 655.22725199 -160.25452896 655.22725199 -160.31173599 653.78918558 C-160.35717544 652.48691019 -160.35717544 652.48691019 -160.40353286 651.15832621 C-160.37520099 649.13799429 -160.37520099 649.13799429 -161.59298599 648.13293558 C-161.69282167 645.4814683 -161.72659528 642.85599647 -161.71882713 640.20399576 C-161.72028057 639.35895467 -161.72173401 638.51391358 -161.72323149 637.64326519 C-161.72691874 634.77465149 -161.72339256 631.90609002 -161.71996963 629.0374766 C-161.72112038 626.97492577 -161.72270758 624.91237515 -161.72469687 622.84982497 C-161.72889661 617.15322252 -161.72679662 611.45663668 -161.72371066 605.76003414 C-161.72145938 599.62773147 -161.7249348 593.49543177 -161.72769058 587.36312968 C-161.73189206 576.03460032 -161.73151131 564.70607779 -161.72877911 553.37754861 C-161.72626771 542.91369631 -161.72560491 532.44984598 -161.72680175 521.98599344 C-161.72687814 521.29303392 -161.72695452 520.60007439 -161.72703322 519.88611609 C-161.72734454 517.07346499 -161.72766294 514.2608139 -161.72799299 511.4481628 C-161.73105488 485.04068095 -161.72827394 458.63320251 -161.72289609 432.2257212 C-161.71815017 408.7426424 -161.71857478 385.25956902 -161.72335708 361.77649027 C-161.72870684 335.41860311 -161.73083777 309.06071896 -161.72774482 282.70283133 C-161.72742408 279.89518013 -161.72711124 277.08752892 -161.72680175 274.27987772 C-161.72672268 273.58851641 -161.7266436 272.89715509 -161.72656212 272.18484343 C-161.72542263 261.72524873 -161.72675867 251.2656562 -161.72928131 240.8060618 C-161.73213407 228.91804837 -161.73134288 217.03004134 -161.72600056 205.14202815 C-161.72336237 199.07014467 -161.72236045 192.99827222 -161.72564971 186.9263888 C-161.72861028 181.37756717 -161.7270239 175.82876689 -161.72167216 170.27994722 C-161.72054694 168.26314918 -161.72114144 166.24634937 -161.72354795 164.22955245 C-161.72654962 161.50696707 -161.72350987 158.78445673 -161.71882713 156.0618754 C-161.72116829 155.26261554 -161.72350946 154.46335568 -161.72592157 153.63987583 C-161.70713633 148.24708592 -161.70713633 148.24708592 -160.59298599 147.13293558 C-160.38366701 144.96997285 -160.22501529 142.80198848 -160.09298599 140.63293558 C-159.7040971 134.24404669 -159.7040971 134.24404669 -158.59298599 133.13293558 C-158.38599036 131.63796716 -158.2261934 130.13627638 -158.09298599 128.63293558 C-157.7040971 124.24404669 -157.7040971 124.24404669 -156.59298599 123.13293558 C-156.43529249 121.71953465 -156.31664043 120.30168036 -156.21798599 118.88293558 C-155.82362703 114.85029717 -154.76383183 112.57010817 -152.59298599 109.13293558 C-152.44861099 108.08106058 -152.30423599 107.02918558 -152.15548599 105.94543558 C-150.05545 91.71185836 -140.51342123 76.89358185 -132.59298599 65.13293558 C-132.01218277 64.20698588 -131.43137954 63.28103617 -130.83297622 62.32702738 C-128.38563536 58.83726601 -125.7060839 55.95747803 -122.69064224 52.96496683 C-122.13106323 52.40347437 -121.57148422 51.84198191 -120.99494827 51.26347452 C-119.81825042 50.08542357 -118.63905474 48.90986276 -117.45748794 47.73669535 C-115.65719591 45.94713532 -113.86785282 44.14712442 -112.07931411 42.34582621 C-110.92956435 41.1973978 -109.77919446 40.04958981 -108.62814224 38.90246683 C-108.09777862 38.36805475 -107.567415 37.83364268 -107.02097976 37.28303629 C-104.07914402 34.37776287 -101.2150638 32.11878965 -97.59298599 30.13293558 C-96.66228286 29.49356058 -95.73157974 28.85418558 -94.77267349 28.19543558 C-91.2002285 25.87817397 -87.53993232 23.99658941 -83.71798599 22.13293558 C-83.04896255 21.80293558 -82.37993911 21.47293558 -81.69064224 21.13293558 C-80.33987785 20.46666259 -78.98774157 19.80316366 -77.63424575 19.14245707 C-76.25016892 18.45795071 -74.87315085 17.75901819 -73.5028981 17.04724222 C-69.67520697 15.06746449 -66.13086748 13.55121757 -61.90548599 12.57043558 C-57.94635707 11.57384605 -55.07892571 10.26323208 -51.59298599 8.13293558 C-49.26803321 7.74544345 -46.9344733 7.4031072 -44.59298599 7.13293558 C-44.26298599 6.80293558 -43.93298599 6.47293558 -43.59298599 6.13293558 C-40.75326063 5.80942257 -37.91224862 5.61989268 -35.06173599 5.41418558 C-32.65162548 5.39908294 -32.65162548 5.39908294 -31.59298599 4.13293558 C-28.09298599 3.63293558 -28.09298599 3.63293558 -24.59298599 3.13293558 C-24.26298599 2.80293558 -23.93298599 2.47293558 -23.59298599 2.13293558 C-19.95345403 1.86222659 -16.32055075 1.68648041 -12.67501724 1.52746683 C-8.04258062 1.29938422 -4.60663737 0.01579475 0 0 Z " fill="#00366B" transform="translate(264.59298598766327,108.86706441640854)"/>
<path d="M0 0 C-3.25413021 1.78880561 -6.47065203 2.77737848 -10.05249023 3.73657227 C-11.27995468 4.06774551 -12.50741913 4.39891876 -13.77207947 4.74012756 C-14.42791456 4.91495226 -15.08374966 5.08977695 -15.75945854 5.26989937 C-17.8482139 5.82697299 -19.93537871 6.38968786 -22.02223206 6.95384216 C-27.2287514 8.36026751 -32.43742608 9.75862904 -37.64678955 11.15447998 C-95.88613813 24.6937095 -95.88613813 24.6937095 -148 52 C-148.928125 52.61875 -149.85625 53.2375 -150.8125 53.875 C-154.52821979 57.48455637 -157.6664362 61.88485329 -158.23046875 67.15234375 C-157.82877416 72.0193875 -156.20183095 75.40770186 -153 79 C-140.90727303 88.37002374 -124.41721427 91.97158292 -109.8125 95.5 C-108.2286992 95.89037937 -106.64496005 96.28100894 -105.0612793 96.671875 C-95.51817025 99.00758448 -85.95043616 101.09100426 -76.3125 103 C3.97810812 118.9930272 3.97810812 118.9930272 22.84375 145.04296875 C27.49658881 152.91821282 27.24963165 163.21577683 25.34765625 172.01953125 C23.08949324 178.17375233 19.30760441 183.12161571 15 188 C14.17435547 188.94939453 14.17435547 188.94939453 13.33203125 189.91796875 C0.6202647 203.52769674 -16.40595283 212.80778193 -32.18847656 222.31884766 C-68.5827389 244.03093498 -68.5827389 244.03093498 -90 279 C-91.55165326 292.70627046 -88.72633513 303.34219541 -80.28125 314.35546875 C-74.94969628 320.53605414 -68.88522282 325.65143822 -62 330 C-62 330.33 -62 330.66 -62 331 C-167.93 331 -273.86 331 -383 331 C-375.23408869 311.58522172 -355.33573124 293.50777812 -339 281 C-338.33645508 280.48711426 -337.67291016 279.97422852 -336.98925781 279.44580078 C-298.04149925 249.49595981 -252.55217784 229.56061543 -207.08505249 211.74102783 C-155.74980056 195.20269787 -155.74980056 195.20269787 -115.0625 163.125 C-113.21665777 157.69605226 -112.99429885 153.09521073 -115.5 147.875 C-123.06363843 139.17681581 -131.71009279 134.80107154 -142 130 C-142.96292969 129.5359375 -143.92585937 129.071875 -144.91796875 128.59375 C-150.53678819 125.94159922 -156.29049538 123.73066404 -162.11328125 121.57714844 C-217.1059265 101.1709127 -217.1059265 101.1709127 -228.875 83.125 C-230.89717065 77.5078593 -230.9038043 72.36040094 -228.4375 66.875 C-214.18490008 42.07938096 -176.29044507 33.83670286 -151 26 C-149.91041992 25.66226562 -148.82083984 25.32453125 -147.69824219 24.9765625 C-116.22612684 15.44634575 -83.34997232 10.25945353 -50.875 5.5625 C-49.71803619 5.39501251 -48.56107239 5.22752502 -47.36904907 5.05496216 C-36.35033474 3.47208371 -25.32685566 1.96521155 -14.2578125 0.77734375 C-13.50112274 0.6955336 -12.74443298 0.61372345 -11.96481323 0.5294342 C-7.95978203 0.12151383 -4.02512264 -0.07873004 0 0 Z " fill="#FBFBFB" transform="translate(626,232)"/>
<path d="M0 0 C1.00289063 -0.01546875 2.00578125 -0.0309375 3.0390625 -0.046875 C15.15346827 0.01573175 24.48929402 4.17149661 33.09375 12.53515625 C47.43362451 27.70438918 47 43.82357198 47 64.5 C23.24 64.5 -0.52 64.5 -25 64.5 C-22.11583264 79.43238914 -22.11583264 79.43238914 -13.17578125 88.79296875 C-5.68036015 92.97612758 4.64715898 92.88640065 12.8203125 90.76953125 C17.78765118 88.70682282 23.52984991 85.44030017 26 80.5 C30.55315948 81.11811534 34.28459767 82.96765893 38.3125 85.0625 C38.95767578 85.39185547 39.60285156 85.72121094 40.26757812 86.06054688 C41.84785228 86.86824255 43.42432105 87.68337613 45 88.5 C41.47483313 98.24902608 33.87076265 103.68700324 25 108.5 C22.33856064 109.7262129 19.81109061 110.60982131 17 111.5 C15.93910156 111.84933594 14.87820313 112.19867187 13.78515625 112.55859375 C9.61943608 113.59465006 5.95290605 113.80733461 1.6875 113.75 C0.93621826 113.74105713 0.18493652 113.73211426 -0.58911133 113.72290039 C-14.36616289 113.4359714 -26.52517772 109.27072975 -36.5625 99.5625 C-49.73240405 85.20708904 -51.83722511 68.01759432 -51.17919922 49.17382812 C-50.23593472 35.09939656 -44.56968856 21.07561036 -34 11.5 C-23.51872434 3.52049528 -13.1430789 -0.20272101 0 0 Z " fill="#FBFCFC" transform="translate(366,657.5)"/>
<path d="M0 0 C8.25 0 16.5 0 25 0 C25.33 19.8 25.66 39.6 26 60 C28.31 57.36 30.62 54.72 33 52 C43.80123075 44.35605209 54.11077002 43.97593888 67 45 C75.27442268 46.48563498 81.5630363 50.6331733 87 57 C92.2515459 65.08917829 94.3240011 73.58794203 94.22705078 83.16015625 C94.22734283 83.93185654 94.22763489 84.70355682 94.22793579 85.49864197 C94.22655531 88.02004703 94.21105533 90.5411473 94.1953125 93.0625 C94.1915778 94.82226398 94.18873299 96.58203006 94.18673706 98.34179688 C94.17913658 102.95149576 94.15951923 107.56106667 94.1373291 112.17071533 C94.11679309 116.88332387 94.10771882 121.59595327 94.09765625 126.30859375 C94.07626964 135.5391275 94.04111707 144.76953303 94 154 C85.42 154 76.84 154 68 154 C67.9906543 151.77515869 67.98130859 149.55031738 67.97167969 147.25805664 C67.93781221 139.88185557 67.88220932 132.50593139 67.81609726 125.12995243 C67.77669933 120.66075806 67.74447338 116.19175845 67.72900391 111.72241211 C67.7137864 107.40386494 67.67925147 103.08585349 67.63169098 98.7675457 C67.61692945 97.12549959 67.608962 95.48337697 67.60811615 93.84126472 C67.86359638 81.28586853 67.86359638 81.28586853 63 70 C60.1315587 67.89767656 60.1315587 67.89767656 57 67 C56.360625 66.773125 55.72125 66.54625 55.0625 66.3125 C47.63992803 65.18786788 40.88259974 66.24760909 34.71875 70.6171875 C30.18483967 74.44472775 27.24004385 77.16372081 26.7215271 83.29034424 C26.70820343 84.59606384 26.69487976 85.90178345 26.68115234 87.24707031 C26.67110672 87.96941864 26.6610611 88.69176697 26.65071106 89.43600464 C26.61989198 91.81670355 26.60284769 94.19729006 26.5859375 96.578125 C26.5672248 98.23151618 26.54765131 99.88489781 26.5272522 101.53826904 C26.47593566 105.88487117 26.43630742 110.23150425 26.39910889 114.57824707 C26.35906623 119.01578426 26.30797508 123.45319271 26.2578125 127.890625 C26.16105879 136.59366854 26.07767362 145.29676524 26 154 C17.42 154 8.84 154 0 154 C0 103.18 0 52.36 0 0 Z " fill="#FBFCFC" transform="translate(508,614)"/>
<path d="M0 0 C1.37466431 0.07069702 1.37466431 0.07069702 2.77709961 0.14282227 C4.26113281 0.21533203 4.26113281 0.21533203 5.77514648 0.28930664 C6.81606445 0.34538086 7.85698242 0.40145508 8.92944336 0.45922852 C10.49662109 0.53753906 10.49662109 0.53753906 12.09545898 0.61743164 C14.68622872 0.74756163 17.27660143 0.88341417 19.86694336 1.02172852 C17.89149775 9.43720472 15.47918981 17.61528358 12.72631836 25.80688477 C12.32702118 27.00613586 11.927724 28.20538696 11.5163269 29.440979 C10.44309852 32.65944644 9.36565002 35.8764277 8.28546906 39.09256363 C7.61307264 41.09576011 6.94225201 43.09947767 6.27191162 45.10336304 C0.43630566 62.54490549 -5.46439315 79.96352287 -11.50805664 97.33422852 C-11.95501892 98.62298386 -11.95501892 98.62298386 -12.41101074 99.93777466 C-23.20738143 131.01516758 -23.20738143 131.01516758 -30.13305664 139.02172852 C-30.71055664 139.88797852 -31.28805664 140.75422852 -31.88305664 141.64672852 C-37.867737 147.96389112 -45.80510471 151.07620697 -54.13305664 153.02172852 C-55.21200195 153.3040332 -55.21200195 153.3040332 -56.31274414 153.59204102 C-60.5225846 154.23342945 -64.69494351 154.12511719 -68.94555664 154.08422852 C-71.97743164 154.06360352 -75.00930664 154.04297852 -78.13305664 154.02172852 C-78.13305664 147.42172852 -78.13305664 140.82172852 -78.13305664 134.02172852 C-69.13305664 133.77172852 -69.13305664 133.77172852 -66.34790039 133.72387695 C-59.34149775 133.43845317 -53.72988535 131.75892634 -48.82055664 126.58422852 C-48.26368164 125.73860352 -47.70680664 124.89297852 -47.13305664 124.02172852 C-46.59680664 123.27922852 -46.06055664 122.53672852 -45.50805664 121.77172852 C-43.08860991 116.93283505 -41.57842918 112.63808389 -42.73071289 107.20239258 C-43.85466666 103.83809633 -45.12062345 100.56218495 -46.44555664 97.27172852 C-46.94343739 95.98479597 -47.43888001 94.69691804 -47.93212891 93.40820312 C-49.03332409 90.53977196 -50.14732719 87.67672381 -51.26879883 84.81616211 C-53.30392665 79.60648998 -55.27165626 74.37222102 -57.23461914 69.13500977 C-62.71921519 54.51546774 -68.21201326 39.89918268 -73.89086914 25.35375977 C-74.17686478 24.62034866 -74.46286041 23.88693756 -74.75752258 23.13130188 C-76.07414732 19.75777886 -77.39683862 16.38685628 -78.73046875 13.02001953 C-79.18429932 11.86300537 -79.63812988 10.70599121 -80.10571289 9.51391602 C-80.50024658 8.51730957 -80.89478027 7.52070312 -81.30126953 6.49389648 C-82.13305664 4.02172852 -82.13305664 4.02172852 -82.13305664 1.02172852 C-73.22305664 1.02172852 -64.31305664 1.02172852 -55.13305664 1.02172852 C-54.5155957 2.88571289 -53.89813477 4.74969727 -53.26196289 6.67016602 C-47.67669915 23.49817569 -41.98182561 40.28308294 -36.13305664 57.02172852 C-35.60373535 58.53766602 -35.60373535 58.53766602 -35.0637207 60.08422852 C-33.09118725 65.73159364 -31.11430038 71.37741356 -29.13305664 77.02172852 C-23.75621552 63.2035727 -19.10160534 49.15839851 -14.44555664 35.08422852 C-13.67956423 32.77619166 -12.91328996 30.46824832 -12.14672852 28.16040039 C-10.74240229 23.93123779 -9.33968736 19.70154888 -7.93896484 15.47119141 C-7.482108 14.09557541 -7.482108 14.09557541 -7.01602173 12.69216919 C-6.42717755 10.91126814 -5.84365958 9.12859719 -5.26547241 7.34420776 C-4.99900909 6.52679108 -4.73254578 5.70937439 -4.45800781 4.8671875 C-4.22546799 4.14699936 -3.99292816 3.42681122 -3.75334167 2.68479919 C-2.84406586 0.24690392 -2.67026143 0.02720079 0 0 Z " fill="#FBFCFC" transform="translate(695.133056640625,659.978271484375)"/>
<path d="M0 0 C35.97 0 71.94 0 109 0 C110 11 110 11 110 22 C96.47 22 82.94 22 69 22 C69 63.91 69 105.82 69 149 C60.09 149 51.18 149 42 149 C42 107.09 42 65.18 42 22 C28.14 22 14.28 22 0 22 C0 14.74 0 7.48 0 0 Z " fill="#FCFDFD" transform="translate(212,619)"/>
<path d="M0 0 C5.91539652 5.12234336 9.68482293 10.72261993 12.3125 18.0625 C12.3125 18.7225 12.3125 19.3825 12.3125 20.0625 C9.18944627 21.23442435 6.06375261 22.39913876 2.9375 23.5625 C2.04804687 23.89636719 1.15859375 24.23023438 0.2421875 24.57421875 C-0.60859375 24.89003906 -1.459375 25.20585938 -2.3359375 25.53125 C-3.12145996 25.82451172 -3.90698242 26.11777344 -4.71630859 26.41992188 C-6.6875 27.0625 -6.6875 27.0625 -8.6875 27.0625 C-8.955625 26.38703125 -9.22375 25.7115625 -9.5 25.015625 C-11.78604573 19.811863 -13.66803532 15.80696854 -19.10546875 13.61328125 C-25.55674983 12.23713809 -33.56435161 11.52214285 -39.5625 14.48046875 C-41.97598402 16.27727211 -42.81065106 17.19281257 -43.6875 20.0625 C-44.10886631 23.92502454 -44.09263519 26.27064486 -42.3125 29.75 C-36.0128907 35.29965581 -27.64783165 36.63019605 -19.6875 38.5625 C-7.7881083 41.45995174 2.12432431 44.0525013 9.91796875 54.140625 C14.9526789 62.43308878 14.67232331 72.84730758 12.6484375 82.09765625 C9.49015689 90.98203694 3.25505377 97.30699364 -4.9140625 101.80859375 C-18.14634065 107.79107444 -35.07527402 108.29151564 -48.72265625 103.38671875 C-58.35943661 99.08254412 -67.07090706 93.1342304 -71.625 83.3125 C-72.6875 80.0625 -72.6875 80.0625 -72.6875 76.0625 C-69.94185036 75.02838523 -67.1920139 74.00998843 -64.4375 73 C-63.66019531 72.70544922 -62.88289062 72.41089844 -62.08203125 72.10742188 C-60.95087891 71.6965332 -60.95087891 71.6965332 -59.796875 71.27734375 C-58.75998535 70.89243774 -58.75998535 70.89243774 -57.70214844 70.49975586 C-55.32760268 69.9843885 -53.95091288 70.2158776 -51.6875 71.0625 C-50.37890625 72.76953125 -50.37890625 72.76953125 -49.25 74.875 C-46.42790749 79.71410954 -42.94456439 82.99659677 -37.6875 85.0625 C-35.03572357 85.28134972 -32.52391477 85.38722952 -29.875 85.375 C-29.18857422 85.39111328 -28.50214844 85.40722656 -27.79492188 85.42382812 C-21.66527218 85.42962723 -16.92070837 84.06666136 -12.25 79.875 C-10.01813031 75.85763455 -10.10675715 73.63584993 -10.6875 69.0625 C-13.3214852 65.8165864 -15.75717756 64.35821598 -19.6796875 63.0234375 C-20.6500293 62.69311523 -21.62037109 62.36279297 -22.62011719 62.02246094 C-28.66377675 60.1310514 -34.77464629 58.47864774 -40.90234375 56.8828125 C-51.242269 54.01577289 -59.56148846 49.04399659 -65.6875 40.0625 C-69.50687435 33.03539487 -69.7183604 24.84932982 -68.6875 17.0625 C-66.11660225 9.05787331 -61.87042505 2.54435839 -54.6875 -1.9375 C-37.76392613 -10.36627606 -16.05058107 -11.39170454 0 0 Z " fill="#FAFBFC" transform="translate(795.6875,665.9375)"/>
<path d="M0 0 C0 10.56 0 21.12 0 32 C8.91 32 17.82 32 27 32 C27 38.6 27 45.2 27 52 C18.09 52 9.18 52 0 52 C0.0676563 59.71281872 0.1380958 67.42471569 0.2355423 75.1370697 C0.28012123 78.72889054 0.31957295 82.32059692 0.34643555 85.91259766 C0.37253144 89.37523752 0.41297699 92.83744493 0.46318626 96.29981613 C0.48787932 98.25720168 0.49788361 100.21475477 0.50764465 102.17227173 C0.53733589 103.97345963 0.53733589 103.97345963 0.56762695 105.81103516 C0.58428154 107.38988998 0.58428154 107.38988998 0.60127258 109.00064087 C1.07291623 112.54849995 2.14922704 114.94800444 4 118 C7.26346158 120.17564105 8.32846767 120.2962755 12.125 120.3125 C13.45917969 120.33763672 13.45917969 120.33763672 14.8203125 120.36328125 C19.06489594 119.98919596 19.06489594 119.98919596 27 117 C27 123.93 27 130.86 27 138 C16.67333369 142.42571413 3.90622472 144.20782853 -7.125 140.75 C-13.54830686 138.13173778 -18.96776204 134.54531793 -21.875 128.04296875 C-24.06152743 122.37691931 -25.12520696 117.60844493 -25.11352539 111.48730469 C-25.11367142 110.84298492 -25.11381744 110.19866516 -25.1139679 109.53482056 C-25.1132735 107.41380397 -25.10550336 105.29287617 -25.09765625 103.171875 C-25.09579039 101.69785612 -25.09436728 100.22383662 -25.09336853 98.74981689 C-25.08955661 94.87661008 -25.07973765 91.00344097 -25.06866455 87.13024902 C-25.05842193 83.17537954 -25.0538648 79.22050394 -25.04882812 75.265625 C-25.03811417 67.51039752 -25.02052812 59.75520885 -25 52 C-30.28 52 -35.56 52 -41 52 C-41 45.4 -41 38.8 -41 32 C-35.72 32 -30.44 32 -25 32 C-25 23.75 -25 15.5 -25 7 C-21.431875 5.845 -17.86375 4.69 -14.1875 3.5 C-13.06625732 3.13455078 -11.94501465 2.76910156 -10.78979492 2.39257812 C-9.46105347 1.9662207 -9.46105347 1.9662207 -8.10546875 1.53125 C-7.19949951 1.23798828 -6.29353027 0.94472656 -5.36010742 0.64257812 C-3 0 -3 0 0 0 Z " fill="#FDFDFD" transform="translate(464,629)"/>
<path d="M0 0 C5.94 0 11.88 0 18 0 C17.67 0.66 17.34 1.32 17 2 C14.4736235 2.28628332 12.03433175 2.46717192 9.5 2.5625 C4.87778611 2.35294651 4.87778611 2.35294651 1 4 C-2.36109285 4.32526705 -5.7233399 4.5135946 -9.09375 4.71875 C-11.89050132 4.6785989 -11.89050132 4.6785989 -13 6 C-15.68260194 6.09985403 -18.33951218 6.13360695 -21.02264404 6.12584114 C-21.87781538 6.12729458 -22.73298671 6.12874802 -23.61407232 6.13024551 C-26.51714624 6.13393282 -29.42016854 6.13040654 -32.32324219 6.12698364 C-34.41054181 6.12813438 -36.49784123 6.12972159 -38.58514023 6.13171089 C-44.35015206 6.13591066 -50.11514747 6.13381061 -55.88015938 6.13072467 C-62.08608236 6.12847341 -68.2920024 6.13194881 -74.4979248 6.13470459 C-85.9624757 6.13890608 -97.42701923 6.13852531 -108.89157009 6.13579312 C-119.48105869 6.13328173 -130.07054535 6.13261891 -140.66003418 6.13381577 C-141.36131179 6.13389215 -142.06258939 6.13396854 -142.78511783 6.13404724 C-145.63153062 6.13435855 -148.4779434 6.13467695 -151.32435618 6.135007 C-178.04886205 6.1380689 -204.77336456 6.13528795 -231.49786991 6.1299101 C-255.26290466 6.12516418 -279.02793405 6.12558879 -302.79296875 6.13037109 C-329.46728218 6.13572084 -356.14159263 6.13785179 -382.81590652 6.13475883 C-385.65725962 6.13443809 -388.49861272 6.13412525 -391.33996582 6.13381577 C-392.38945615 6.13369715 -392.38945615 6.13369715 -393.4601483 6.13357614 C-404.04533243 6.13243664 -414.63051441 6.13377269 -425.21569824 6.13629532 C-437.24644354 6.13914808 -449.27718112 6.13835691 -461.30792618 6.13301457 C-467.45271921 6.13037637 -473.59750134 6.12937449 -479.74229431 6.13266373 C-485.35773108 6.13562427 -490.97314674 6.13403796 -496.58858156 6.12868617 C-498.62960556 6.12756094 -500.6706313 6.12815548 -502.71165419 6.13056196 C-505.46691416 6.13356358 -508.22209998 6.13052395 -510.97735596 6.12584114 C-512.19068485 6.12935289 -512.19068485 6.12935289 -513.42852545 6.13293558 C-518.88584966 6.11415034 -518.88584966 6.11415034 -520 5 C-523.21019977 4.7637353 -526.41273872 4.60339698 -529.62890625 4.48242188 C-531.42413939 4.39075776 -533.21385947 4.20240144 -535 4 C-535.33 3.34 -535.66 2.68 -536 2 C-534.43082831 2.10618854 -534.43082831 2.10618854 -532.82995617 2.2145223 C-520.60088902 2.99468759 -508.42085536 3.13897277 -496.1701355 3.12025452 C-494.01795378 3.12069153 -491.86577212 3.12156881 -489.71359074 3.12284368 C-483.84823692 3.12506317 -477.9829016 3.12110252 -472.11755013 3.11606562 C-465.77424896 3.11172447 -459.43094873 3.11321014 -453.08764648 3.1139679 C-442.11355211 3.11449082 -431.13946379 3.11140347 -420.16537094 3.10573006 C-408.6642237 3.0997995 -397.16307884 3.09596139 -385.66193008 3.09487724 C-384.58659461 3.09477413 -384.58659461 3.09477413 -383.48953518 3.09466894 C-379.84835317 3.09433058 -376.20717116 3.0940292 -372.56598915 3.09374207 C-346.82019558 3.09164538 -321.07440511 3.08491844 -295.32861328 3.07543945 C-270.32731137 3.06624524 -245.3260103 3.05916642 -220.32470703 3.05493164 C-219.55315354 3.05480011 -218.78160005 3.05466859 -217.98666615 3.05453308 C-210.23793815 3.05321448 -202.48921015 3.05193868 -194.74048213 3.05069422 C-178.95745069 3.04815846 -163.1744193 3.04533721 -147.39138794 3.04234314 C-146.30302988 3.0421372 -146.30302988 3.0421372 -145.19268478 3.04192711 C-96.79512187 3.0327368 -48.39756078 3.01687193 0 3 C0 2.01 0 1.02 0 0 Z " fill="#DDE6EA" transform="translate(776,909)"/>
<path d="M0 0 C0.81238047 0.00262701 1.62476094 0.00525403 2.461759 0.00796065 C3.32060668 0.0068068 4.17945435 0.00565296 5.06432772 0.00446415 C7.9798993 0.00178977 10.8954171 0.00632635 13.81098595 0.01075396 C15.90724773 0.01031842 18.00350945 0.00944385 20.09977087 0.00816479 C25.8895179 0.00591634 31.67924662 0.00994588 37.46899131 0.01494285 C43.70147913 0.01924217 49.93396582 0.0178013 56.1664547 0.01704058 C66.97442148 0.01651501 77.78238084 0.01963048 88.59034577 0.02527842 C99.92970534 0.0311889 111.26906252 0.03504304 122.60842362 0.03613123 C123.66471676 0.03623434 123.66471676 0.03623434 124.74234915 0.03633953 C128.318383 0.03667785 131.89441686 0.03697924 135.47045072 0.03726641 C160.82081611 0.03936863 186.17117836 0.04611102 211.52154198 0.05556902 C236.15402879 0.0647486 260.78651474 0.07183459 285.41900292 0.07607684 C286.1778518 0.07620836 286.93670067 0.07633989 287.71854497 0.0764754 C295.33899251 0.07779388 302.95944005 0.0790697 310.5798876 0.08031426 C326.10458278 0.08285069 341.62927791 0.08567195 357.15397301 0.08866534 C357.8678241 0.08880263 358.58167518 0.08893992 359.31715811 0.08908137 C407.01313571 0.09828706 454.70911146 0.11415359 502.4050869 0.13100848 C502.7350869 0.79100848 503.0650869 1.45100848 503.4050869 2.13100848 C502.33776873 2.13274473 501.27045055 2.13448097 500.17078939 2.13626984 C453.10001895 2.21290524 406.02925071 2.29074538 358.95849267 2.37467608 C357.88841437 2.3765836 357.88841437 2.3765836 356.79671833 2.37852966 C341.29041189 2.40617835 325.78410585 2.43404152 310.27780019 2.46212542 C302.67276823 2.47589779 295.06773618 2.48962281 287.46270409 2.50332293 C286.70593919 2.50468701 285.94917428 2.5060511 285.1694771 2.50745652 C260.67035754 2.55159449 236.17123396 2.59260921 211.67210633 2.6319926 C186.48188017 2.67250355 161.29166144 2.71618875 136.10144771 2.76382959 C132.53799561 2.77056747 128.97454345 2.77726933 125.41109124 2.78394923 C124.70979925 2.78526495 124.00850727 2.78658068 123.28596401 2.78793628 C112.02777846 2.80896585 100.76959005 2.82668026 89.51139699 2.84313379 C78.17454354 2.85977379 66.83770193 2.88003408 55.50086051 2.90367689 C49.36587617 2.91636717 43.23089951 2.92752212 37.09590569 2.93442759 C31.46709235 2.94079822 25.83830574 2.95170003 20.20950723 2.96604178 C18.18494163 2.97042964 16.16037174 2.97322633 14.13580161 2.97417047 C1.19520626 2.9813529 -11.67630469 3.3686176 -24.5949131 4.13100848 C-24.2649131 3.47100848 -23.9349131 2.81100848 -23.5949131 2.13100848 C-21.77153419 2.04012957 -21.77153419 2.04012957 -19.91131935 1.94741473 C-18.32667082 1.86302516 -16.74203608 1.77837637 -15.1574131 1.69350848 C-14.35497169 1.65419207 -13.55253028 1.61487566 -12.72577247 1.57436785 C-8.07577912 1.31930492 -4.62371347 0.01422578 0 0 Z " fill="#CCDAE2" transform="translate(264.5949130952358,108.8689915239811)"/>
<path d="M0 0 C6.24030625 3.55051908 9.30893709 9.16053013 11.7265625 15.72265625 C12.4140625 19.16015625 12.4140625 19.16015625 12.4140625 26.16015625 C-3.0959375 26.16015625 -18.6059375 26.16015625 -34.5859375 26.16015625 C-33.55384601 16.87133286 -32.16502481 9.97239794 -25.0234375 3.66015625 C-17.94838838 -1.96066799 -8.5795415 -2.78640698 0 0 Z " fill="#034276" transform="translate(375.5859375,678.83984375)"/>
<path d="M0 0 C0.66 0.33 1.32 0.66 2 1 C2.28628332 3.5263765 2.46717192 5.96566825 2.5625 8.5 C2.35294651 13.12221389 2.35294651 13.12221389 4 17 C4.09983568 19.65146729 4.1336093 22.27693912 4.12584114 24.92893982 C4.12729458 25.77398091 4.12874802 26.619022 4.13024551 27.4896704 C4.13393275 30.3582841 4.13040657 33.22684556 4.12698364 36.09545898 C4.12813439 38.15800981 4.12972159 40.22056043 4.13171089 42.28311062 C4.13591063 47.97971307 4.13381063 53.67629891 4.13072467 59.37290144 C4.12847339 65.50520411 4.13194881 71.63750381 4.13470459 77.76980591 C4.13890607 89.09833526 4.13852532 100.42685779 4.13579312 111.75538698 C4.13328172 122.21923927 4.13261892 132.68308961 4.13381577 143.14694214 C4.13393034 144.18638143 4.13393034 144.18638143 4.13404724 145.24681949 C4.13435855 148.05947059 4.13467695 150.87212169 4.135007 153.68477279 C4.13806889 180.09225463 4.13528795 206.49973307 4.1299101 232.90721439 C4.12516418 256.39029319 4.12558879 279.87336656 4.13037109 303.35644531 C4.13572085 329.71433247 4.13785178 356.07221663 4.13475883 382.43010426 C4.13443809 385.23775546 4.13412525 388.04540666 4.13381577 390.85305786 C4.13373669 391.54441918 4.13365761 392.2357805 4.13357614 392.94809216 C4.13243665 403.40768685 4.13377269 413.86727938 4.13629532 424.32687378 C4.13914809 436.21488722 4.13835689 448.10289424 4.13301457 459.99090743 C4.13037639 466.06279092 4.12937447 472.13466337 4.13266373 478.20654678 C4.1356243 483.75536842 4.13403791 489.30416869 4.12868617 494.85298836 C4.12756096 496.8697864 4.12815545 498.88658622 4.13056196 500.90338314 C4.13356364 503.62596852 4.13052388 506.34847885 4.12584114 509.07106018 C4.12818231 509.87032004 4.13052347 510.6695799 4.13293558 511.49305975 C4.11415034 516.88584966 4.11415034 516.88584966 3 518 C2.78936893 520.50416935 2.62427923 522.99140081 2.5 525.5 C2.13513514 532.86486486 2.13513514 532.86486486 1 534 C0.71681146 536.84087552 0.55149787 539.68165215 0.37890625 542.53125 C0.19134766 543.75328125 0.19134766 543.75328125 0 545 C-0.66 545.33 -1.32 545.66 -2 546 C-1.85860519 543.74971671 -1.71171997 541.49977794 -1.5625 539.25 C-1.48128906 537.99703125 -1.40007813 536.7440625 -1.31640625 535.453125 C-1.07045374 532.76890256 -0.64947804 530.57872525 0 528 C1.99625964 514.60284082 2.28914519 501.15627086 2.25396729 487.64091492 C2.2562784 485.6725148 2.25945925 483.70411555 2.26342177 481.73571807 C2.27168928 476.38673449 2.26768153 471.03782323 2.26144934 465.68883955 C2.25689245 459.89659958 2.2639246 454.10437137 2.26940918 448.31213379 C2.27827101 436.98796057 2.27639538 425.66381397 2.2705839 414.33963975 C2.26605406 405.12883225 2.26546021 395.91803218 2.26763153 386.70722389 C2.267938 385.39272701 2.26824446 384.07823012 2.26856022 382.72389999 C2.26903938 380.72257876 2.26951857 378.72125752 2.270014 376.71993629 C2.27612035 351.75454628 2.270604 326.78917071 2.2598202 301.82378292 C2.25033364 279.69346798 2.25117681 257.56317607 2.26074219 235.43286133 C2.27147666 210.51502006 2.27568381 185.59719155 2.26951766 160.67934829 C2.26887632 158.01764 2.26825187 155.3559317 2.26763153 152.6942234 C2.2671687 150.73020671 2.2671687 150.73020671 2.26669653 148.72651291 C2.26497585 139.5373192 2.26787118 130.3481337 2.27259064 121.15894127 C2.27822374 109.94504291 2.27663235 98.73117252 2.26602915 87.51727732 C2.2608045 81.80504671 2.25866038 76.09286258 2.26532745 70.3806324 C2.3962485 40.17424832 2.3962485 40.17424832 0.18333006 10.07389319 C-0.11417459 6.70841746 -0.06052892 3.37644203 0 0 Z " fill="#EDF1F4" transform="translate(919,242)"/>
<path d="M0 0 C1.21449033 0.08837429 1.21449033 0.08837429 2.45351583 0.17853391 C28.13598968 1.98598583 53.73500828 2.309783 79.47384584 2.31667423 C85.31447223 2.32043162 91.15507169 2.33561672 96.99568176 2.34928894 C107.07185255 2.37137037 117.14801351 2.38649742 127.22420311 2.39665604 C141.7919854 2.41135342 156.359737 2.43691332 170.92749826 2.46498732 C194.57299381 2.51042757 218.21849534 2.54696941 241.86401367 2.578125 C264.80900955 2.60837832 287.75399332 2.64275765 310.69897461 2.68261719 C311.40852992 2.68384819 312.11808523 2.68507919 312.84914222 2.6863475 C319.97598082 2.69871631 327.10281928 2.71116786 334.22965763 2.72367998 C348.74272931 2.74915775 363.25580192 2.7740839 377.76887512 2.79867554 C378.76940296 2.8003719 378.76940296 2.8003719 379.79014348 2.80210253 C424.19341489 2.87732375 468.5967062 2.9396536 513 3 C513 3.33 513 3.66 513 4 C465.72700583 4.01710972 418.45401142 4.03303145 371.18101501 4.04234314 C370.13237737 4.04255023 370.13237737 4.04255023 369.06255512 4.04276149 C353.87125654 4.04575405 338.67995793 4.04852428 323.48865927 4.05106533 C316.03939588 4.05231272 308.59013251 4.05360927 301.14086914 4.05493164 C300.02890232 4.05512778 300.02890232 4.05512778 298.89447151 4.05532788 C274.84456256 4.05959307 250.79465595 4.06710724 226.74474841 4.07629722 C202.04076883 4.08572004 177.33679054 4.09188317 152.6328092 4.09391499 C149.14759034 4.09420317 145.66237149 4.0945288 142.17715263 4.09487724 C141.14818981 4.09497838 141.14818981 4.09497838 140.09843986 4.09508156 C129.03362122 4.0962656 117.96880657 4.10090991 106.90398956 4.10683203 C95.79375424 4.11270521 84.68352198 4.11489027 73.57328493 4.11350138 C67.54798861 4.11285766 61.52270407 4.11387928 55.49740982 4.11920547 C49.99110947 4.12403766 44.48482894 4.12433985 38.97852772 4.12089889 C36.97717686 4.12047302 34.97582482 4.12177027 32.97447634 4.12488318 C30.27271387 4.12884415 27.57102477 4.12676529 24.86926365 4.12304783 C24.07613532 4.12567484 23.283007 4.12830186 22.46584448 4.13100848 C17.1141458 4.1141458 17.1141458 4.1141458 16 3 C12.78980023 2.7637353 9.58726128 2.60339698 6.37109375 2.48242188 C4.57586061 2.39075776 2.78614053 2.20240144 1 2 C0.67 1.34 0.34 0.68 0 0 Z " fill="#FEFEFE" transform="translate(240,911)"/>
<path d="M0 0 C0.33 0 0.66 0 1 0 C0.85845864 2.56280208 0.71191438 5.12515485 0.5625 7.6875 C0.50352539 8.7693457 0.50352539 8.7693457 0.44335938 9.87304688 C0.40146484 10.57880859 0.35957031 11.28457031 0.31640625 12.01171875 C0.27974854 12.65584717 0.24309082 13.29997559 0.20532227 13.96362305 C0 16 0 16 -0.50514215 18.10565871 C-1.14696448 21.85957082 -1.13581376 25.55050377 -1.12304783 29.34583759 C-1.12420167 30.18735179 -1.12535552 31.02886598 -1.12654433 31.89588061 C-1.1292007 34.72840242 -1.12469684 37.56086791 -1.12025452 40.39338684 C-1.12069042 42.43947843 -1.12156567 44.48556997 -1.12284368 46.53166121 C-1.12508492 52.1641506 -1.12107239 57.79662105 -1.11606562 63.42910802 C-1.11175601 69.49928816 -1.11320791 75.5694672 -1.1139679 81.63964844 C-1.11449281 92.15997878 -1.11138427 102.68030365 -1.10573006 113.2006321 C-1.09981462 124.23524823 -1.09596443 135.26986189 -1.09487724 146.3044796 C-1.0948085 146.99037756 -1.09473976 147.67627551 -1.09466894 148.38295826 C-1.09433061 151.8662357 -1.09402923 155.34951313 -1.09374207 158.83279058 C-1.09164122 183.50986662 -1.08490263 208.18693944 -1.07543945 232.86401367 C-1.06625626 256.83862287 -1.05917204 280.81323119 -1.05493164 304.7878418 C-1.05480011 305.52674184 -1.05466859 306.26564189 -1.05453308 307.02693284 C-1.05321457 314.4472177 -1.05193875 321.86750256 -1.05069422 329.28778743 C-1.04815795 344.40399111 -1.0453367 359.52019472 -1.04234314 374.63639832 C-1.04220585 375.33142888 -1.04206856 376.02645945 -1.04192711 376.74255155 C-1.03272523 423.1617024 -1.0168591 469.58085136 -1 516 C-1.66 515.67 -2.32 515.34 -3 515 C-3.01710972 467.34565816 -3.03303145 419.6913161 -3.04234314 372.03697205 C-3.0424812 371.33224133 -3.04261925 370.62751062 -3.04276149 369.90142443 C-3.04575405 354.58759305 -3.04852428 339.27376164 -3.05106533 323.95993019 C-3.05231272 316.4505817 -3.05360927 308.94123323 -3.05493164 301.43188477 C-3.0550624 300.68459418 -3.05519316 299.93730359 -3.05532788 299.16736783 C-3.05959308 274.92345165 -3.06710725 250.67953779 -3.07629722 226.43562302 C-3.08572003 201.53237043 -3.09188317 176.62911913 -3.09391499 151.72586479 C-3.09420317 148.21253675 -3.0945288 144.6992087 -3.09487724 141.18588066 C-3.09494467 140.49437284 -3.09501209 139.80286503 -3.09508156 139.09040243 C-3.0962656 127.93631982 -3.10090992 116.78224117 -3.10683203 105.62816019 C-3.1127052 94.42830804 -3.11489027 83.22845978 -3.11350138 72.02860577 C-3.11285766 65.95470309 -3.1138793 59.8808121 -3.11920547 53.80691147 C-3.12403763 48.25620102 -3.12433987 42.70551023 -3.12089889 37.15479892 C-3.12047302 35.13729743 -3.12177029 33.11979477 -3.12488318 31.10229564 C-3.12884409 28.3787501 -3.12676532 25.65527734 -3.12304783 22.93173313 C-3.12567484 22.13218742 -3.12830186 21.33264172 -3.13100848 20.50886735 C-3.1141458 15.1141458 -3.1141458 15.1141458 -2 14 C-1.79068103 11.83703727 -1.63202931 9.6690529 -1.5 7.5 C-1.11111111 1.11111111 -1.11111111 1.11111111 0 0 Z " fill="#D0DBE3" transform="translate(106,242)"/>
<path d="M0 0 C0.4125 0.474375 0.825 0.94875 1.25 1.4375 C2.85797078 3.15558612 2.85797078 3.15558612 4.9375 3.3125 C8.88417539 4.62805846 10.40444089 8.86843769 12.25 12.375 C12.4975 12.91125 12.745 13.4475 13 14 C13.66 14 14.32 14 15 14 C15.2475 14.78375 15.495 15.5675 15.75 16.375 C16.71469246 19.104608 16.71469246 19.104608 18.890625 19.91796875 C21.43038305 21.22077057 22.39658898 22.5977399 24 24.9375 C27.84917243 30.53344362 31.40334009 32.35083502 38 34 C38 34.99 38 35.98 38 37 C39.3921875 37.0928125 39.3921875 37.0928125 40.8125 37.1875 C44 38 44 38 45.875 40.5625 C46.24625 41.366875 46.6175 42.17125 47 43 C46.01 43.495 46.01 43.495 45 44 C41.15378365 41.97005248 37.60506388 39.42790016 34 37 C33.06502686 36.41017334 32.13005371 35.82034668 31.16674805 35.21264648 C27.88127079 32.91704242 25.07998545 30.36909004 22.26953125 27.53515625 C21.49388069 26.76237587 21.49388069 26.76237587 20.70256042 25.97398376 C19.61866679 24.8914422 18.53725874 23.80640667 17.45825195 22.71899414 C15.81354292 21.06354973 14.15839918 19.41908158 12.50195312 17.77539062 C11.44467049 16.71678665 10.38800829 15.65756258 9.33203125 14.59765625 C8.84136673 14.11104019 8.35070221 13.62442413 7.84516907 13.12306213 C4.0017986 9.22712156 1.01145811 5.46187379 0 0 Z " fill="#3E5883" transform="translate(132,847)"/>
<path d="M0 0 C5.94 0 11.88 0 18 0 C17.67 0.66 17.34 1.32 17 2 C14.4736235 2.28628332 12.03433175 2.46717192 9.5 2.5625 C4.87778611 2.35294651 4.87778611 2.35294651 1 4 C-2.36109285 4.32526705 -5.7233399 4.5135946 -9.09375 4.71875 C-11.89050132 4.6785989 -11.89050132 4.6785989 -13 6 C-15.92272767 6.0651999 -18.82056718 6.06494032 -21.74243164 6.02172852 C-22.6594133 6.01212097 -23.57639496 6.00251343 -24.52116394 5.99261475 C-27.56756979 5.95949922 -30.61383777 5.91921503 -33.66015625 5.87890625 C-35.76622524 5.85461739 -37.87229941 5.83077323 -39.9783783 5.80735779 C-45.53347648 5.74439404 -51.0884836 5.67536243 -56.64349365 5.60510254 C-62.30720863 5.5345298 -67.9709884 5.46964676 -73.63476562 5.40429688 C-84.75658162 5.27512622 -95.87830975 5.13955058 -107 5 C-107 4.67 -107 4.34 -107 4 C-71.69 3.67 -36.38 3.34 0 3 C0 2.01 0 1.02 0 0 Z " fill="#D5DFE5" transform="translate(776,909)"/>
<path d="M0 0 C8.50687689 1.64501512 14.97171807 9.6598563 20.8125 15.5625 C21.56208984 16.30435547 22.31167969 17.04621094 23.08398438 17.81054688 C23.80521484 18.53435547 24.52644531 19.25816406 25.26953125 20.00390625 C25.91510986 20.65174072 26.56068848 21.2995752 27.22583008 21.96704102 C29.14865206 24.17033517 30.53469266 26.47561175 32 29 C32.495 29.495 32.99 29.99 33.5 30.5 C35.48160389 32.48160389 36.74877161 34.49754323 38 37 C37.67 37.99 37.34 38.98 37 40 C36.34 39.01 35.68 38.02 35 37 C34.13375 36.484375 33.2675 35.96875 32.375 35.4375 C31.59125 34.963125 30.8075 34.48875 30 34 C30 33.34 30 32.68 30 32 C29.34 32 28.68 32 28 32 C28 31.01 28 30.02 28 29 C27.34 29 26.68 29 26 29 C25.81566406 28.45472656 25.63132812 27.90945312 25.44140625 27.34765625 C21.41472975 16.87829735 12.91375407 10.67617859 4.16625977 4.18579102 C2.76269335 3.14351803 1.37917068 2.07434625 0 1 C0 0.67 0 0.34 0 0 Z " fill="#F4F7F8" transform="translate(859,140)"/>
<path d="M0 0 C0.33 0 0.66 0 1 0 C0.85845864 2.56280208 0.71191438 5.12515485 0.5625 7.6875 C0.50352539 8.7693457 0.50352539 8.7693457 0.44335938 9.87304688 C0.40146484 10.57880859 0.35957031 11.28457031 0.31640625 12.01171875 C0.27974854 12.65584717 0.24309082 13.29997559 0.20532227 13.96362305 C0 16 0 16 -0.5 18.10412598 C-1.14870286 21.86124951 -1.17716205 25.56947158 -1.20532227 29.37036133 C-1.21522186 30.20014496 -1.22512146 31.02992859 -1.23532104 31.88485718 C-1.26681279 34.61721989 -1.29164457 37.34959996 -1.31640625 40.08203125 C-1.33698643 41.98061058 -1.35798318 43.87918543 -1.37937927 45.77775574 C-1.43449007 50.76716482 -1.48394771 55.7566145 -1.53222656 60.74609375 C-1.58252197 65.84053141 -1.63816602 70.93491034 -1.69335938 76.02929688 C-1.80080646 86.01948104 -1.90228116 96.00971627 -2 106 C-2.33 106 -2.66 106 -3 106 C-3.02312202 94.15234827 -3.04091437 82.30470186 -3.05181217 70.4570322 C-3.05704131 64.95629138 -3.06413951 59.45556595 -3.07543945 53.95483398 C-3.08626725 48.6510344 -3.0922766 43.34724965 -3.09487724 38.04343987 C-3.09673169 36.01514388 -3.10035267 33.98684874 -3.10573006 31.95855904 C-3.11293906 29.12803486 -3.113991 26.29757282 -3.11352539 23.46704102 C-3.11712067 22.61971909 -3.12071594 21.77239716 -3.12442017 20.8993988 C-3.11405216 15.11405216 -3.11405216 15.11405216 -2 14 C-1.79068103 11.83703727 -1.63202931 9.6690529 -1.5 7.5 C-1.11111111 1.11111111 -1.11111111 1.11111111 0 0 Z " fill="#CED9E2" transform="translate(106,242)"/>
<path d="M0 0 C2 2 2 2 2 9 C-13.51 9 -29.02 9 -45 9 C-44.67 7.02 -44.34 5.04 -44 3 C-43.67 4.32 -43.34 5.64 -43 7 C-28.81 7 -14.62 7 0 7 C0 4.69 0 2.38 0 0 Z " fill="#053068" transform="translate(386,696)"/>
<path d="M0 0 C0.95708359 0.00222061 1.91416718 0.00444122 2.9002533 0.00672913 C3.98129837 0.00680466 5.06234344 0.00688019 6.17614746 0.00695801 C7.94018166 0.01469994 7.94018166 0.01469994 9.73985291 0.02259827 C10.93702438 0.02401321 12.13419586 0.02542816 13.36764526 0.02688599 C17.20918732 0.03250472 21.05067208 0.04506041 24.89219666 0.05775452 C27.48920102 0.0627671 30.0862063 0.06733043 32.68321228 0.07142639 C39.06539344 0.08248024 45.44754096 0.0992366 51.82969666 0.12025452 C51.82969666 0.45025452 51.82969666 0.78025452 51.82969666 1.12025452 C50.71336853 1.14007385 49.59704041 1.15989319 48.44688416 1.18031311 C19.89306205 1.66958617 19.89306205 1.66958617 -8.58045959 3.71791077 C-12.79858505 4.13417894 -16.93326942 4.19372909 -21.17030334 4.12025452 C-20.84030334 3.46025452 -20.51030334 2.80025452 -20.17030334 2.12025452 C-18.34692444 2.02937561 -18.34692444 2.02937561 -16.48670959 1.93666077 C-14.90206107 1.8522712 -13.31742633 1.76762241 -11.73280334 1.68275452 C-10.93036194 1.64343811 -10.12792053 1.6041217 -9.30116272 1.56361389 C-5.87284024 1.37556245 -3.08646579 0.17101824 0 0 Z " fill="#F1F4F6" transform="translate(261.17030334472656,108.87974548339844)"/>
<path d="M0 0 C0.66 0.33 1.32 0.66 2 1 C-3.5057019 7.28956454 -13.1201036 10.18531195 -20.75390625 13.12890625 C-22.77759231 13.9137445 -24.76349504 14.75128556 -26.75 15.625 C-36 19.53846154 -36 19.53846154 -40 18 C-39.01 18 -38.02 18 -37 18 C-37.33 17.01 -37.66 16.02 -38 15 C-31.565 14.505 -31.565 14.505 -25 14 C-25 13.01 -25 12.02 -25 11 C-24.01 11 -23.02 11 -22 11 C-22 10.34 -22 9.68 -22 9 C-21.17113281 9.08121094 -20.34226562 9.16242187 -19.48828125 9.24609375 C-14.97457927 8.92765789 -12.06258143 7.27413184 -8.1875 5.0625 C-7.50751953 4.68931641 -6.82753906 4.31613281 -6.12695312 3.93164062 C-2.86477516 2.2458497 -2.86477516 2.2458497 0 0 Z " fill="#C6D0DC" transform="translate(851,886)"/>
<path d="M0 0 C0.33 0.66 0.66 1.32 1 2 C-0.40792541 4.81585081 -1.86237884 6.86642652 -4.125 9.0625 C-6.09732587 11.10057007 -6.60548202 12.23837416 -7 15 C-7.99 15 -8.98 15 -10 15 C-10.33 15.99 -10.66 16.98 -11 18 C-12.3153341 18.70151152 -13.65117592 19.36525925 -15 20 C-16.70921589 21.5412312 -16.70921589 21.5412312 -18 23 C-16.13078331 13.55007119 -6.64317516 6.43040443 0 0 Z " fill="#4A648B" transform="translate(148,156)"/>
<path d="M0 0 C5.94 0 11.88 0 18 0 C17.67 0.66 17.34 1.32 17 2 C14.4736235 2.28628332 12.03433175 2.46717192 9.5 2.5625 C4.87778611 2.35294651 4.87778611 2.35294651 1 4 C-2.36109285 4.32526705 -5.7233399 4.5135946 -9.09375 4.71875 C-11.89050132 4.6785989 -11.89050132 4.6785989 -13 6 C-14.60048202 6.12535652 -16.20715928 6.17574787 -17.8125 6.1875 C-18.68519531 6.20167969 -19.55789063 6.21585938 -20.45703125 6.23046875 C-23.10919085 5.99010406 -24.72464999 5.34187309 -27 4 C-17.97746114 3.16069406 -9.0598059 2.87775374 0 3 C0 2.01 0 1.02 0 0 Z " fill="#C4CDDA" transform="translate(776,909)"/>
<path d="M0 0 C2.78518047 1.17834558 4.51494326 2.45772734 6.8125 4.5 C10.00809223 7.27060299 12.89998627 8.09799698 17 9 C17 9.99 17 10.98 17 12 C17.928125 12.061875 18.85625 12.12375 19.8125 12.1875 C23 13 23 13 24.875 15.5625 C25.431875 16.7690625 25.431875 16.7690625 26 18 C25.34 18.33 24.68 18.66 24 19 C20.15378365 16.97005248 16.60506388 14.42790016 13 12 C12.030625 11.401875 11.06125 10.80375 10.0625 10.1875 C6.30484831 7.50346308 3.06446227 4.4543199 0 1 C0 0.67 0 0.34 0 0 Z " fill="#8A9DB6" transform="translate(153,872)"/>
<path d="M0 0 C2.0622048 -0.054348 4.12482816 -0.09294961 6.1875 -0.125 C7.33605469 -0.14820313 8.48460937 -0.17140625 9.66796875 -0.1953125 C12.91740372 -0.00484152 15.08660521 0.60639873 18 2 C17.67 2.66 17.34 3.32 17 4 C21.95 4.99 26.9 5.98 32 7 C32 7.33 32 7.66 32 8 C30.52093108 8.02689216 29.04172517 8.04634621 27.5625 8.0625 C26.32693359 8.07990234 26.32693359 8.07990234 25.06640625 8.09765625 C23 8 23 8 22 7 C20.845 6.835 19.69 6.67 18.5 6.5 C15 6 15 6 14 5 C12.453125 4.814375 12.453125 4.814375 10.875 4.625 C6.7226187 3.95526108 3.78044406 2.77449415 0 1 C0 0.67 0 0.34 0 0 Z " fill="#95A7BE" transform="translate(206,903)"/>
<path d="M0 0 C0 2.62113708 -0.31292445 4.50935112 -1 7 C-1.66 7 -2.32 7 -3 7 C-3.0825 8.155 -3.165 9.31 -3.25 10.5 C-3.81486683 15.22127498 -5.66168853 18.9106739 -8 23 C-8.99 23 -9.98 23 -11 23 C-11.12375 23.598125 -11.2475 24.19625 -11.375 24.8125 C-12 27 -12 27 -14 30 C-13.41519208 26.55924139 -12.54264073 23.67715603 -11.0390625 20.53125 C-10.64976563 19.71269531 -10.26046875 18.89414063 -9.859375 18.05078125 C-9.45203125 17.20902344 -9.0446875 16.36726563 -8.625 15.5 C-8.22539063 14.65824219 -7.82578125 13.81648437 -7.4140625 12.94921875 C-2.33041446 2.33041446 -2.33041446 2.33041446 0 0 Z " fill="#9EADC2" transform="translate(129,179)"/>
<path d="M0 0 C1.2065625 0.0309375 1.2065625 0.0309375 2.4375 0.0625 C1.1175 0.3925 -0.2025 0.7225 -1.5625 1.0625 C-1.5625 2.0525 -1.5625 3.0425 -1.5625 4.0625 C-2.11711914 4.10737549 -2.67173828 4.15225098 -3.24316406 4.19848633 C-5.76762554 4.41044185 -8.28985059 4.64250619 -10.8125 4.875 C-11.68519531 4.94525391 -12.55789062 5.01550781 -13.45703125 5.08789062 C-18.12191315 5.53301294 -20.94083843 5.91031308 -24.5625 9.0625 C-26.921875 9.57421875 -26.921875 9.57421875 -29.3125 9.75 C-30.11171875 9.81574219 -30.9109375 9.88148437 -31.734375 9.94921875 C-32.33765625 9.98660156 -32.9409375 10.02398437 -33.5625 10.0625 C-32.5625 8.0625 -32.5625 8.0625 -30.53125 7.24609375 C-29.7165625 6.99988281 -28.901875 6.75367187 -28.0625 6.5 C-25.04918507 5.73701663 -25.04918507 5.73701663 -22.5625 4.0625 C-19.0625 3.5625 -19.0625 3.5625 -15.5625 3.0625 C-15.2325 2.7325 -14.9025 2.4025 -14.5625 2.0625 C-11.72277465 1.73898699 -8.88176263 1.5494571 -6.03125 1.34375 C-3.12390151 1.01253308 -2.95941616 0.07218088 0 0 Z " fill="#E5ECF0" transform="translate(235.5625,112.9375)"/>
<path d="M0 0 C0 0.99 0 1.98 0 3 C-0.82987427 3.22151733 -0.82987427 3.22151733 -1.67651367 3.44750977 C-7.83210892 5.26803179 -12.30326501 7.97928833 -17.3125 11.9375 C-18.34600586 12.72543945 -18.34600586 12.72543945 -19.40039062 13.52929688 C-22.82283735 16.16626403 -26.03755809 18.83955426 -29 22 C-29.66 21.67 -30.32 21.34 -31 21 C-29.44395612 19.38957012 -27.87987244 17.78690632 -26.3125 16.1875 C-25.44238281 15.29417969 -24.57226562 14.40085938 -23.67578125 13.48046875 C-21.21145757 11.19602272 -18.92474785 9.61836048 -16 8 C-15.071875 7.360625 -14.14375 6.72125 -13.1875 6.0625 C-3.81818182 0 -3.81818182 0 0 0 Z " fill="#E6ECF1" transform="translate(183,131)"/>
<path d="M0 0 C-2.80670093 1.50398914 -5.46544207 2.49788378 -8.546875 3.2890625 C-9.39121094 3.50820312 -10.23554687 3.72734375 -11.10546875 3.953125 C-11.97816406 4.17484375 -12.85085938 4.3965625 -13.75 4.625 C-14.63816406 4.85445312 -15.52632812 5.08390625 -16.44140625 5.3203125 C-18.62660301 5.88423424 -20.81278147 6.44398135 -23 7 C-23.66 5.35 -24.32 3.7 -25 2 C-21.95872183 1.66274935 -18.91705809 1.33007668 -15.875 1 C-15.0190625 0.90460938 -14.163125 0.80921875 -13.28125 0.7109375 C-8.82977526 0.23154791 -4.48558075 -0.11765458 0 0 Z " fill="#E4EBF0" transform="translate(626,232)"/>
<path d="M0 0 C0.33 0 0.66 0 1 0 C0.85845864 2.56280208 0.71191438 5.12515485 0.5625 7.6875 C0.50352539 8.7693457 0.50352539 8.7693457 0.44335938 9.87304688 C0.40146484 10.57880859 0.35957031 11.28457031 0.31640625 12.01171875 C0.27974854 12.65584717 0.24309082 13.29997559 0.20532227 13.96362305 C0 16 0 16 -0.5 18.390625 C-1.0387111 21.20202357 -1.20935403 23.87845764 -1.31640625 26.73828125 C-1.35830078 27.80498047 -1.40019531 28.87167969 -1.44335938 29.97070312 C-1.48267578 31.07349609 -1.52199219 32.17628906 -1.5625 33.3125 C-1.60568359 34.43462891 -1.64886719 35.55675781 -1.69335938 36.71289062 C-1.79914787 39.47514569 -1.90123672 42.2374863 -2 45 C-2.33 45 -2.66 45 -3 45 C-3.02465622 40.74585377 -3.04283899 36.49174502 -3.05493164 32.23754883 C-3.05997101 30.78929927 -3.06680253 29.34105483 -3.07543945 27.89282227 C-3.08752247 25.81525412 -3.09323211 23.73775303 -3.09765625 21.66015625 C-3.10289307 20.40855713 -3.10812988 19.15695801 -3.11352539 17.86743164 C-3 15 -3 15 -2 14 C-1.79068103 11.83703727 -1.63202931 9.6690529 -1.5 7.5 C-1.11111111 1.11111111 -1.11111111 1.11111111 0 0 Z " fill="#EFF3F5" transform="translate(106,242)"/>
<path d="M0 0 C11.55 0.66 23.1 1.32 35 2 C30.69301387 4.15349306 28.5437767 4.24143165 23.8125 4.1875 C22.56082031 4.18105469 21.30914062 4.17460938 20.01953125 4.16796875 C17 4 17 4 16 3 C12.78980023 2.7637353 9.58726128 2.60339698 6.37109375 2.48242188 C4.57586061 2.39075776 2.78614053 2.20240144 1 2 C0.67 1.34 0.34 0.68 0 0 Z " fill="#F3F6F7" transform="translate(240,911)"/>
<path d="M0 0 C0.66 0.33 1.32 0.66 2 1 C2.37400786 3.32716 2.70764733 5.66117862 3 8 C3.33 8.33 3.66 8.66 4 9 C4.32097751 11.31817089 4.51220956 13.63779357 4.71875 15.96875 C4.79065837 17.99180593 4.79065837 17.99180593 6 19 C6.04092937 21.33297433 6.04241723 23.66705225 6 26 C5.67 26 5.34 26 5 26 C5 24.02 5 22.04 5 20 C4.01 20 3.02 20 2 20 C1.92652344 19.07767578 1.92652344 19.07767578 1.8515625 18.13671875 C1.77679687 17.32847656 1.70203125 16.52023438 1.625 15.6875 C1.55539062 14.88699219 1.48578125 14.08648437 1.4140625 13.26171875 C1.10435574 10.72775559 1.10435574 10.72775559 -1 8 C-0.96856707 5.26009592 -0.44521663 2.71582146 0 0 Z " fill="#93A5BC" transform="translate(913,216)"/>
<path d="M0 0 C5.49891126 3.72506892 9.62168351 7.22416858 13 13 C12.67 13.99 12.34 14.98 12 16 C11.34 15.01 10.68 14.02 10 13 C9.13375 12.484375 8.2675 11.96875 7.375 11.4375 C6.59125 10.963125 5.8075 10.48875 5 10 C5 9.34 5 8.68 5 8 C4.34 8 3.68 8 3 8 C3 7.01 3 6.02 3 5 C2.34 5 1.68 5 1 5 C0.67 3.35 0.34 1.7 0 0 Z " fill="#425F88" transform="translate(884,164)"/>
<path d="M0 0 C-0.66 1.32 -1.32 2.64 -2 4 C-2.99 4 -3.98 4 -5 4 C-5 4.66 -5 5.32 -5 6 C-6.67465856 7.38137335 -8.41689132 8.68146716 -10.1875 9.9375 C-11.15042969 10.62714844 -12.11335937 11.31679687 -13.10546875 12.02734375 C-18.42370934 15.65178571 -18.42370934 15.65178571 -21 17 C-21.66 16.67 -22.32 16.34 -23 16 C-22.53851563 15.6596875 -22.07703125 15.319375 -21.6015625 14.96875 C-16.70911049 11.33325206 -11.93549645 7.570983 -7.19921875 3.734375 C-2.46396396 0 -2.46396396 0 0 0 Z " fill="#566D93" transform="translate(172,139)"/>
<path d="M0 0 C0.99 0.66 1.98 1.32 3 2 C0.39287077 4.83717004 -1.70516221 6.85547167 -5.1875 8.5625 C-8.25501005 10.13033847 -8.76541878 10.91354694 -10 14 C-10.99 14.495 -10.99 14.495 -12 15 C-12.33 14.01 -12.66 13.02 -13 12 C-8.71 8.04 -4.42 4.08 0 0 Z " fill="#0E3366" transform="translate(562,475)"/>
<path d="M0 0 C16.42995169 11.28985507 16.42995169 11.28985507 19 19 C18.34 19 17.68 19 17 19 C17 18.34 17 17.68 17 17 C16.44441406 16.77183594 15.88882813 16.54367188 15.31640625 16.30859375 C12.34755288 14.63141689 10.31384481 12.50336096 7.9375 10.0625 C6.65166016 8.74958984 6.65166016 8.74958984 5.33984375 7.41015625 C4.56769531 6.61480469 3.79554688 5.81945312 3 5 C2.40316406 4.44183594 1.80632813 3.88367188 1.19140625 3.30859375 C0 2 0 2 0 0 Z " fill="#587095" transform="translate(865,145)"/>
<path d="M0 0 C1.0209375 0.2165625 1.0209375 0.2165625 2.0625 0.4375 C4.27934808 0.86200282 6.51267367 1.20168982 8.75 1.5 C12 2 12 2 13 3 C14.155 3.144375 15.31 3.28875 16.5 3.4375 C17.655 3.623125 18.81 3.80875 20 4 C20.33 4.66 20.66 5.32 21 6 C17.7 6 14.4 6 11 6 C11 5.34 11 4.68 11 4 C8.36 4 5.72 4 3 4 C2.67 3.01 2.34 2.02 2 1 C1.34 0.67 0.68 0.34 0 0 Z " fill="#8699B3" transform="translate(801,115)"/>
<path d="M0 0 C0.33 0 0.66 0 1 0 C1.02683987 2.97922593 1.04676037 5.95821295 1.0625 8.9375 C1.07087891 9.78763672 1.07925781 10.63777344 1.08789062 11.51367188 C1.09111328 12.32255859 1.09433594 13.13144531 1.09765625 13.96484375 C1.10289307 14.7137085 1.10812988 15.46257324 1.11352539 16.23413086 C1 18 1 18 0 19 C-0.28318854 21.84087552 -0.44850213 24.68165215 -0.62109375 27.53125 C-0.74613281 28.3459375 -0.87117187 29.160625 -1 30 C-1.66 30.33 -2.32 30.66 -3 31 C-2.85860519 28.74971671 -2.71171997 26.49977794 -2.5625 24.25 C-2.48128906 22.99703125 -2.40007813 21.7440625 -2.31640625 20.453125 C-2.07117599 17.77678485 -1.65303783 15.57133646 -1 13 C-0.7801777 10.75292759 -0.59516013 8.50228762 -0.4375 6.25 C-0.31181641 4.49429688 -0.31181641 4.49429688 -0.18359375 2.703125 C-0.12300781 1.81109375 -0.06242188 0.9190625 0 0 Z " fill="#DBE3EA" transform="translate(920,757)"/>
<path d="M0 0 C0.33 0.99 0.66 1.98 1 3 C1.99 3 2.98 3 4 3 C5.90608098 6.21182149 6.22266247 8.53882603 6.125 12.25 C6.10695313 13.14203125 6.08890625 14.0340625 6.0703125 14.953125 C6.03550781 15.96632813 6.03550781 15.96632813 6 17 C4 16 4 16 3.18359375 13.671875 C2.81427734 12.22554687 2.81427734 12.22554687 2.4375 10.75 C2.18871094 9.79609375 1.93992187 8.8421875 1.68359375 7.859375 C1.05937214 5.24834519 0.50514309 2.63636585 0 0 Z " fill="#627C9D" transform="translate(113,805)"/>
<path d="M0 0 C0.33 0.99 0.66 1.98 1 3 C-2.96 6.96 -6.92 10.92 -11 15 C-11.33 13.68 -11.66 12.36 -12 11 C-10.68 10.34 -9.36 9.68 -8 9 C-8 8.01 -8 7.02 -8 6 C-7.13375 5.9071875 -7.13375 5.9071875 -6.25 5.8125 C-3.11309013 4.67972699 -1.90832496 2.65802405 0 0 Z " fill="#62789A" transform="translate(889,851)"/>
<path d="M0 0 C0.33 0.99 0.66 1.98 1 3 C0.109375 4.6484375 0.109375 4.6484375 -1.25 6.375 C-2.88987844 8.51910699 -4.31436 10.5355763 -5.6875 12.875 C-7 15 -7 15 -9 16 C-8.38461538 9.47692308 -8.38461538 9.47692308 -6.4375 7.0625 C-5.7259375 6.5365625 -5.7259375 6.5365625 -5 6 C-4.34 6.33 -3.68 6.66 -3 7 C-3 5.68 -3 4.36 -3 3 C-1.5 1.25 -1.5 1.25 0 0 Z " fill="#9CACC1" transform="translate(899,835)"/>
<path d="M0 0 C3.31248187 -0.02888146 6.62493167 -0.04675799 9.9375 -0.0625 C10.88302734 -0.07087891 11.82855469 -0.07925781 12.80273438 -0.08789062 C14.15141602 -0.09272461 14.15141602 -0.09272461 15.52734375 -0.09765625 C16.77632446 -0.10551147 16.77632446 -0.10551147 18.05053711 -0.11352539 C20 0 20 0 21 1 C23.31952569 1.28101946 25.63885514 1.44782625 27.96875 1.62109375 C28.6390625 1.74613281 29.309375 1.87117188 30 2 C30.33 2.66 30.66 3.32 31 4 C15.655 2.515 15.655 2.515 0 1 C0 0.67 0 0.34 0 0 Z " fill="#E6ECF0" transform="translate(769,111)"/>
<path d="M0 0 C0.33 0 0.66 0 1 0 C1 3.3 1 6.6 1 10 C0.01 10.33 -0.98 10.66 -2 11 C-2.66 14.63 -3.32 18.26 -4 22 C-4.33 22 -4.66 22 -5 22 C-5.33724238 16.26687954 -5.2228505 12.89873277 -2 8 C-1.61250787 5.67504723 -1.27017161 3.34148732 -1 1 C-0.67 0.67 -0.34 0.34 0 0 Z " fill="#7B8DAA" transform="translate(114,210)"/>
<path d="M0 0 C3.75345656 0.71971619 6.86091969 2.33112202 10.25 4.0625 C11.32765625 4.61035156 12.4053125 5.15820312 13.515625 5.72265625 C14.74539063 6.35494141 14.74539063 6.35494141 16 7 C13.19259281 8.40370359 12.02916393 7.85606807 9 7 C6.22187933 5.85205957 3.49230759 4.68871309 1 3 C0.67 2.01 0.34 1.02 0 0 Z " fill="#8496B1" transform="translate(832,125)"/>
<path d="M0 0 C3.904477 3.66784203 7.12649348 7.63829226 10.3515625 11.9140625 C11.80545176 13.75381811 13.30364164 15.38588931 15 17 C14.67 17.66 14.34 18.32 14 19 C12.38957012 17.44395612 10.78690632 15.87987244 9.1875 14.3125 C8.29417969 13.44238281 7.40085938 12.57226562 6.48046875 11.67578125 C3.18659014 8.12254212 0.88915591 4.8014419 0 0 Z " fill="#EBF0F4" transform="translate(132,847)"/>
<path d="M0 0 C0 3.85946003 -1.08189512 4.49509059 -3.6875 7.25 C-7.14093328 10.99786454 -10.13408795 14.79069168 -13 19 C-13.33 18.01 -13.66 17.02 -14 16 C-13.566875 15.608125 -13.13375 15.21625 -12.6875 14.8125 C-10.91423633 13.05912095 -10.91423633 13.05912095 -9.8125 10.8125 C-7.12634319 6.64432563 -3.56926222 3.41665718 0 0 Z " fill="#E5EBF0" transform="translate(144,160)"/>
<path d="M0 0 C1.32 0.33 2.64 0.66 4 1 C2.61068357 2.44379943 1.21323422 3.87977512 -0.1875 5.3125 C-0.96480469 6.11300781 -1.74210938 6.91351562 -2.54296875 7.73828125 C-6.00806547 10.92793308 -9.33613273 13.13632088 -14 14 C-10.50968739 10.29154285 -6.85423053 7.3384686 -2.671875 4.4296875 C-0.71538079 3.0052863 -0.71538079 3.0052863 0 0 Z " fill="#D9E1E9" transform="translate(867,872)"/>
<path d="M0 0 C0.33 0 0.66 0 1 0 C1.04898438 0.93199219 1.09796875 1.86398437 1.1484375 2.82421875 C1.64654341 11.31778339 2.54203291 19.60607297 4 28 C3.34 27.67 2.68 27.34 2 27 C1.62599214 24.67284 1.29235267 22.33882138 1 20 C0.67 19.67 0.34 19.34 0 19 C-0.08651611 17.58429877 -0.10704904 16.164405 -0.09765625 14.74609375 C-0.09443359 13.89208984 -0.09121094 13.03808594 -0.08789062 12.15820312 C-0.07951172 11.26037109 -0.07113281 10.36253906 -0.0625 9.4375 C-0.05798828 8.53580078 -0.05347656 7.63410156 -0.04882812 6.70507812 C-0.03700225 4.46998686 -0.0205222 2.23502563 0 0 Z " fill="#E0E7ED" transform="translate(105,760)"/>
<path d="M0 0 C1.17369141 0.12568359 1.17369141 0.12568359 2.37109375 0.25390625 C3.88896484 0.40666016 3.88896484 0.40666016 5.4375 0.5625 C6.44683594 0.66691406 7.45617187 0.77132812 8.49609375 0.87890625 C9.73552734 0.93884766 9.73552734 0.93884766 11 1 C11.33 0.67 11.66 0.34 12 0 C13.66617115 -0.04063832 15.33388095 -0.042721 17 0 C16.67 0.99 16.34 1.98 16 3 C10.72 3 5.44 3 0 3 C0 2.01 0 1.02 0 0 Z " fill="#0E3F74" transform="translate(360,747)"/>
<path d="M0 0 C4.14850903 2.07425451 5.65020397 8.1338384 7.3125 12.25 C8.00582495 15.02329979 8.01289614 16.36647003 7 19 C7 18.01 7 17.02 7 16 C6.01 16 5.02 16 4 16 C3.67 12.7 3.34 9.4 3 6 C2.01 6 1.02 6 0 6 C0 4.02 0 2.04 0 0 Z " fill="#9BAAC0" transform="translate(905,196)"/>
<path d="M0 0 C-0.99 0 -1.98 0 -3 0 C-3.33 0.99 -3.66 1.98 -4 3 C-4.99 2.67 -5.98 2.34 -7 2 C-7 2.99 -7 3.98 -7 5 C-7.99 5 -8.98 5 -10 5 C-10 5.66 -10 6.32 -10 7 C-12.31 7 -14.62 7 -17 7 C-15.49578991 3.99157981 -13.14864383 3.3199263 -10.1875 1.8125 C-9.12917969 1.26207031 -8.07085937 0.71164063 -6.98046875 0.14453125 C-3.96877469 -1.01199085 -2.9122997 -1.21992215 0 0 Z " fill="#8FA2BA" transform="translate(201,124)"/>
<path d="M0 0 C6.35411471 -0.36658354 6.35411471 -0.36658354 9.3125 1.3125 C11 3 11 3 13 6 C8.14036821 5.39254603 4.2594482 3.27241033 0 1 C0 0.67 0 0.34 0 0 Z " fill="#8398B2" transform="translate(192,897)"/>
<path d="M0 0 C3.03320748 1.51660374 3.69012609 3.94630889 5.1875 6.9375 C5.73792969 8.01902344 6.28835938 9.10054687 6.85546875 10.21484375 C7.23316406 11.13394531 7.61085938 12.05304688 8 13 C7.67 13.66 7.34 14.32 7 15 C6.01 14.67 5.02 14.34 4 14 C2.64560332 11.29120665 2.93498549 8.99066732 3 6 C2.01 6 1.02 6 0 6 C0 4.02 0 2.04 0 0 Z " fill="#869AB4" transform="translate(897,180)"/>
<path d="M0 0 C0.66 0.33 1.32 0.66 2 1 C1.01 3.31 0.02 5.62 -1 8 C-1.99 8 -2.98 8 -4 8 C-4.12375 8.598125 -4.2475 9.19625 -4.375 9.8125 C-5 12 -5 12 -7 15 C-6.30953378 9.47627027 -3.9496621 3.9496621 0 0 Z " fill="#889AB4" transform="translate(122,194)"/>
<path d="M0 0 C1.75128818 0.28382946 3.50100003 0.57739529 5.25 0.875 C6.71179688 1.11863281 6.71179688 1.11863281 8.203125 1.3671875 C10.77264117 1.94855848 12.72071056 2.70840265 15 4 C9.70819739 4.91237976 5.99825558 5.43817345 1 3 C0.67 2.01 0.34 1.02 0 0 Z " fill="#10467A" transform="translate(759,698)"/>
<path d="M0 0 C0.99 0.33 1.98 0.66 3 1 C-0.96 3.97 -4.92 6.94 -9 10 C-9.33 9.01 -9.66 8.02 -10 7 C-9.34 7 -8.68 7 -8 7 C-8 6.34 -8 5.68 -8 5 C-6.20963542 3.99088542 -4.41927083 2.98177083 -2.62890625 1.97265625 C-1.02121854 1.1027487 -1.02121854 1.1027487 0 0 Z " fill="#48638C" transform="translate(862,876)"/>
<path d="M0 0 C0.33 0 0.66 0 1 0 C1.33355299 4.78092614 0.58128543 7.02879164 -2 11 C-2.71143088 12.98451771 -3.38991336 14.98202112 -4 17 C-4.33 17 -4.66 17 -5 17 C-5 14.36 -5 11.72 -5 9 C-4.01 9 -3.02 9 -2 9 C-1.34 6.03 -0.68 3.06 0 0 Z " fill="#B1BDCE" transform="translate(912,803)"/>
<path d="M0 0 C0 0.33 0 0.66 0 1 C-6.93 0.67 -13.86 0.34 -21 0 C-21 -0.33 -21 -0.66 -21 -1 C-18.25048307 -1.22212255 -15.50134388 -1.42815588 -12.75 -1.625 C-11.97269531 -1.68945312 -11.19539063 -1.75390625 -10.39453125 -1.8203125 C-3.27568856 -2.30707097 -3.27568856 -2.30707097 0 0 Z " fill="#031A52" transform="translate(379,657)"/>
<path d="M0 0 C0.33 0 0.66 0 1 0 C1.042721 1.66611905 1.04063832 3.33382885 1 5 C0.67 5.33 0.34 5.66 0 6 C-0.144375 7.155 -0.28875 8.31 -0.4375 9.5 C-0.623125 10.655 -0.80875 11.81 -1 13 C-1.99 13.495 -1.99 13.495 -3 14 C-3 10.37 -3 6.74 -3 3 C-2.34 3 -1.68 3 -1 3 C-0.67 2.01 -0.34 1.02 0 0 Z " fill="#99A8BE" transform="translate(916,788)"/>
<path d="M0 0 C1.69141656 0.08963062 3.37959602 0.24577676 5.0625 0.4375 C6.44115234 0.59025391 6.44115234 0.59025391 7.84765625 0.74609375 C8.55792969 0.82988281 9.26820313 0.91367187 10 1 C10.33 1.99 10.66 2.98 11 4 C2.42857143 3.14285714 2.42857143 3.14285714 -1 1 C-0.67 0.67 -0.34 0.34 0 0 Z " fill="#0F3266" transform="translate(776,657)"/>
<path d="M0 0 C4.62 0.66 9.24 1.32 14 2 C14 2.33 14 2.66 14 3 C8.06 3.495 8.06 3.495 2 4 C1.34 2.68 0.68 1.36 0 0 Z " fill="#0F497C" transform="translate(756,748)"/>
<path d="M0 0 C0.98120464 3.05263664 0.98120464 4.94736336 0 8 C-0.99 8 -1.98 8 -3 8 C-3.66 8.66 -4.32 9.32 -5 10 C-4.49701212 5.59885603 -2.91227269 3.28804981 0 0 Z " fill="#042B62" transform="translate(349,684)"/>
<path d="M0 0 C3.84974175 2.99424358 6.96160954 5.4435978 9 10 C8.67 10.99 8.34 11.98 8 13 C6.66094733 11.2126038 5.32890934 9.41995047 4 7.625 C3.2575 6.62726563 2.515 5.62953125 1.75 4.6015625 C0 2 0 2 0 0 Z " fill="#EFF3F6" transform="translate(888,167)"/>
<path d="M0 0 C4.95 0.99 4.95 0.99 10 2 C10.33 3.32 10.66 4.64 11 6 C6.95743617 4.77782954 3.50711041 3.37245704 0 1 C0 0.67 0 0.34 0 0 Z " fill="#8598B2" transform="translate(180,891)"/>
<path d="M0 0 C3.23861303 1.44424635 5.61969163 3.25772247 8.25 5.625 C8.95640625 6.25664063 9.6628125 6.88828125 10.390625 7.5390625 C10.92171875 8.02117188 11.4528125 8.50328125 12 9 C11.01 9.33 10.02 9.66 9 10 C7.49702124 8.52386015 5.99768715 7.04400843 4.5 5.5625 C3.6646875 4.73878906 2.829375 3.91507813 1.96875 3.06640625 C0 1 0 1 0 0 Z " fill="#E9EEF2" transform="translate(153,872)"/>
<path d="M0 0 C2.78211944 0.37596209 4.5879284 0.67318459 6.8125 2.4375 C8 4 8 4 8 6 C4.74456771 5.65120368 3.98126893 4.97866739 1.75 2.4375 C1.1725 1.633125 0.595 0.82875 0 0 Z " fill="#7084A3" transform="translate(147,866)"/>
<path d="M0 0 C0.33 0 0.66 0 1 0 C1.13277344 0.56589844 1.26554688 1.13179687 1.40234375 1.71484375 C1.57894531 2.44832031 1.75554688 3.18179688 1.9375 3.9375 C2.11152344 4.66839844 2.28554688 5.39929688 2.46484375 6.15234375 C2.83887569 7.99969898 2.83887569 7.99969898 4 9 C4.04092937 11.33297433 4.04241723 13.66705225 4 16 C3.67 16 3.34 16 3 16 C3 14.02 3 12.04 3 10 C2.01 10 1.02 10 0 10 C0 6.7 0 3.4 0 0 Z " fill="#8293AE" transform="translate(915,226)"/>
<path d="M0 0 C-2.97 1.65 -5.94 3.3 -9 5 C-8 1 -8 1 -6.1875 -0.3125 C-4 -1 -4 -1 0 0 Z " fill="#405E89" transform="translate(851,887)"/>
<path d="M0 0 C2.97 0.495 2.97 0.495 6 1 C6.33 2.65 6.66 4.3 7 6 C5.1875 5.8125 5.1875 5.8125 3 5 C1.25 2.4375 1.25 2.4375 0 0 Z " fill="#97A7BD" transform="translate(164,880)"/>
<path d="M0 0 C1.231394 3.69418201 0.64432764 6.2056261 0 10 C-0.66 10 -1.32 10 -2 10 C-2.33 10.66 -2.66 11.32 -3 12 C-2.49202991 7.6822542 -1.80317221 3.96697886 0 0 Z " fill="#032158" transform="translate(713,668)"/>
<path d="M0 0 C4.10958767 1.45044271 7.43258745 3.51110752 11 6 C8.37886292 6 6.49064888 5.68707555 4 5 C4 4.34 4 3.68 4 3 C2.68 3 1.36 3 0 3 C0 2.01 0 1.02 0 0 Z " fill="#A5B2C7" transform="translate(848,133)"/>
<path d="M0 0 C1.2065625 0.0309375 1.2065625 0.0309375 2.4375 0.0625 C1.1175 0.3925 -0.2025 0.7225 -1.5625 1.0625 C-1.5625 2.0525 -1.5625 3.0425 -1.5625 4.0625 C-5.1925 4.0625 -8.8225 4.0625 -12.5625 4.0625 C-12.5625 3.7325 -12.5625 3.4025 -12.5625 3.0625 C-11.60537109 2.86333984 -11.60537109 2.86333984 -10.62890625 2.66015625 C-9.80261719 2.48355469 -8.97632813 2.30695313 -8.125 2.125 C-7.30128906 1.95097656 -6.47757813 1.77695313 -5.62890625 1.59765625 C-2.92413664 0.89717716 -2.95121226 0.07198079 0 0 Z " fill="#798AA8" transform="translate(235.5625,112.9375)"/>
<path d="M0 0 C0.33 0.99 0.66 1.98 1 3 C1.99 3 2.98 3 4 3 C4 5.64 4 8.28 4 11 C2 10 2 10 0.875 7.1875 C0 4 0 4 0 0 Z " fill="#9DAAC0" transform="translate(113,805)"/>
<path d="M0 0 C1 3 1 3 0 6 C-0.66 6 -1.32 6 -2 6 C-2 6.99 -2 7.98 -2 9 C-2.99 9 -3.98 9 -5 9 C-3.7508258 5.54074837 -2.32472205 2.85306797 0 0 Z " fill="#46628A" transform="translate(133,175)"/>
<path d="M0 0 C-1.90401138 1.90401138 -3.33425686 2.93520439 -6.046875 3.19921875 C-8.03233273 3.1886578 -10.0169914 3.09915043 -12 3 C-7.78372195 0.18914797 -4.97048208 -0.11045516 0 0 Z " fill="#2B4C7A" transform="translate(210,122)"/>
<path d="M0 0 C-0.66 1.32 -1.32 2.64 -2 4 C-2.99 4 -3.98 4 -5 4 C-5 4.66 -5 5.32 -5 6 C-5.99 6.33 -6.98 6.66 -8 7 C-8 6.01 -8 5.02 -8 4 C-2.74285714 0 -2.74285714 0 0 0 Z " fill="#36547F" transform="translate(172,139)"/>
<path d="M0 0 C0 0.99 0 1.98 0 3 C-5.445 4.485 -5.445 4.485 -11 6 C-8.45731621 2.18597432 -4.72779558 0 0 0 Z " fill="#C1CBD8" transform="translate(183,131)"/>
<path d="M0 0 C-1.69179328 2.04219706 -2.63727666 2.91793306 -5.26171875 3.51171875 C-6.06222656 3.56972656 -6.86273438 3.62773438 -7.6875 3.6875 C-8.49574219 3.75324219 -9.30398437 3.81898437 -10.13671875 3.88671875 C-10.75160156 3.92410156 -11.36648437 3.96148437 -12 4 C-11 2 -11 2 -8.25 0.875 C-5.29813104 0.08026605 -3.02780163 -0.17810598 0 0 Z " fill="#93A1B9" transform="translate(214,119)"/>
<path d="M0 0 C0.33 0.99 0.66 1.98 1 3 C-1.31 5.31 -3.62 7.62 -6 10 C-6 6.41087588 -5.33563446 5.89142971 -3 3.3125 C-2.443125 2.68988281 -1.88625 2.06726563 -1.3125 1.42578125 C-0.879375 0.95527344 -0.44625 0.48476563 0 0 Z " fill="#ECF0F4" transform="translate(889,851)"/>
<path d="M0 0 C0.33 0.66 0.66 1.32 1 2 C0.33333333 3.66666667 -0.33333333 5.33333333 -1 7 C-1.3813074 9.32597511 -1.72460254 11.65912158 -2 14 C-2.33 14 -2.66 14 -3 14 C-3.32374517 8.49633208 -3.53286034 4.56327794 0 0 Z " fill="#D9E2E9" transform="translate(112,218)"/>
<path d="M0 0 C1.32 0.33 2.64 0.66 4 1 C3.01 2.485 3.01 2.485 2 4 C-0.625 4.1875 -0.625 4.1875 -3 4 C-3 3.34 -3 2.68 -3 2 C-2.01 2 -1.02 2 0 2 C0 1.34 0 0.68 0 0 Z " fill="#5C7698" transform="translate(829,895)"/>
<path d="M0 0 C0.99 0.33 1.98 0.66 3 1 C1.35 2.98 -0.3 4.96 -2 7 C-2.66 6.01 -3.32 5.02 -4 4 C-2.68 3.67 -1.36 3.34 0 3 C0 2.01 0 1.02 0 0 Z " fill="#748AA7" transform="translate(874,865)"/>
<path d="M0 0 C-0.33 0.66 -0.66 1.32 -1 2 C-3.875 2.125 -3.875 2.125 -7 2 C-7.66 1.34 -8.32 0.68 -9 0 C-5.52176885 -1.15941038 -3.54104422 -0.70820884 0 0 Z " fill="#0A2C62" transform="translate(538,330)"/>
<path d="M0 0 C0.99 0.33 1.98 0.66 3 1 C1.35 2.98 -0.3 4.96 -2 7 C-2.33 6.01 -2.66 5.02 -3 4 C-1.5625 1.8125 -1.5625 1.8125 0 0 Z " fill="#4C668D" transform="translate(887,850)"/>
<path d="M0 0 C1.32 0.33 2.64 0.66 4 1 C4.33 2.65 4.66 4.3 5 6 C4.01 6 3.02 6 2 6 C1.34 4.02 0.68 2.04 0 0 Z " fill="#7D90AC" transform="translate(123,831)"/>
</svg>
